<svg version="1.1" xmlns="http://www.w3.org/2000/svg" style="display: block;" viewBox="0 0 2048 2048" width="1024" height="1024" preserveAspectRatio="none">
<defs>
	<linearGradient id="Gradient1" gradientUnits="userSpaceOnUse" x1="481.515" y1="1477.09" x2="480.626" y2="1482.11">
		<stop class="stop0" offset="0" stop-opacity="0" stop-color="rgb(255,255,255)"/>
		<stop class="stop1" offset="1" stop-opacity="0.00784314" stop-color="rgb(214,213,215)"/>
	</linearGradient>
</defs>
<path transform="translate(0,0)" fill="rgb(21,32,48)" d="M 1229.12 368.093 L 1382.75 367.377 C 1395.52 367.248 1422.13 368.841 1432.95 366.717 C 1433.4 380.968 1433.56 395.227 1433.43 409.484 C 1447.12 409.64 1460.8 409.625 1474.48 409.439 C 1474.91 423.011 1474.9 436.593 1474.44 450.164 C 1484.19 450.574 1505.04 450.641 1515.1 450.108 C 1515.31 464.018 1515.33 477.929 1515.16 491.84 C 1528.34 491.872 1543.62 492.236 1556.57 491.296 C 1556.94 532.325 1556.95 573.356 1556.59 614.386 C 1544.85 614.485 1526.34 615.166 1515.16 614.351 L 1515.28 655.316 C 1529.1 654.962 1542.93 654.931 1556.76 655.224 C 1556.82 668.966 1556.3 682.272 1556.28 695.858 L 1557.03 696.249 C 1584.04 695.919 1611.06 695.935 1638.07 696.296 C 1638.15 709.327 1638.72 725.142 1637.83 737.761 C 1651.8 737.259 1664.94 737.333 1678.93 737.465 C 1680.5 769.735 1679.2 804.149 1678.92 836.448 L 1679.03 942.073 C 1665.94 942.06 1651.32 942.379 1638.37 941.969 C 1638.23 955.659 1638.17 969.349 1638.18 983.039 C 1624.08 982.113 1611.12 982.964 1597.17 982.811 L 1597.26 1278.74 C 1597.21 1327.83 1596.01 1385.28 1597.66 1433.75 C 1585.28 1433.02 1569.51 1433.51 1556.82 1433.68 C 1556.66 1446.14 1557.13 1462.89 1556.51 1474.85 C 1542.91 1474.3 1528.15 1475.12 1515.24 1474.37 C 1515.29 1486.75 1515.78 1502.74 1515.14 1514.84 L 1434.79 1515.06 C 1436.46 1523.42 1433.7 1544.71 1433.94 1556.62 L 1380.68 1556.66 C 1373.69 1556.68 1357.84 1557.04 1351.55 1556.23 C 1350.44 1565.67 1351.02 1586.9 1351.07 1597.23 C 1328.33 1597.51 1292.99 1596.5 1271.63 1597.79 C 1269.08 1604.65 1273.58 1632.33 1269.79 1637.64 C 1259.71 1638.9 1227.24 1638.57 1214.9 1638.37 C 1194.44 1638.05 1166.43 1639.46 1146.75 1638.21 C 1146.04 1649.48 1146.61 1667.36 1146.66 1678.95 C 1125.41 1679.63 1101.75 1678.41 1080.17 1678.55 L 901.184 1679.08 C 901.704 1664.94 901.491 1652.57 901.135 1638.4 C 889.262 1637.53 869.03 1638.18 856.369 1638.16 C 830.267 1638 804.165 1638.03 778.063 1638.24 C 778.253 1624.78 778.249 1611.31 778.054 1597.84 C 756.228 1596.11 718.696 1597.14 696.049 1597.12 L 696.13 1555.94 C 669.234 1556.87 640.532 1554.99 614.078 1556.63 C 614.313 1551.16 614.445 1518.73 612.159 1515.35 C 603.301 1514.38 591.846 1514.94 582.696 1514.93 C 566.09 1514.81 549.483 1514.78 532.876 1514.84 C 532.513 1501.54 532.431 1488.23 532.63 1474.92 L 532.363 1474.46 C 524.033 1473.72 499.437 1474.07 491.03 1474.73 L 491.072 1434.02 C 477.895 1433.66 464.117 1433.91 450.886 1433.98 C 449.686 1423.02 450.185 1403.09 450.175 1391.72 L 450.857 1296.69 L 450.897 983.255 C 438.465 982.651 422.413 983.079 409.711 983.055 C 410.328 970.406 409.967 955.324 409.942 942.481 C 395.744 942.019 382.794 942.138 368.579 942.39 C 366.968 897.72 368.991 851.912 368.437 807.139 C 368.15 783.923 368.105 760.192 368.835 737.009 C 394.207 737.679 425.197 737.534 450.714 737.291 C 451.214 722.384 446.169 717.141 447.361 708.017 L 448.48 707.277 L 450.33 712.047 C 451.137 709.317 451.009 699.832 451.06 696.473 C 467.106 694.159 475.686 693.544 491.55 696.358 C 491.756 683.531 491.911 667.761 491.145 655.096 C 504.626 655.69 519.077 655.389 532.652 655.319 C 531.986 643.041 532.71 627.543 532.38 614.58 C 521.192 613.724 502.947 614.343 491.428 614.435 C 491.561 604.429 491.636 594.236 491.334 584.237 C 490.399 553.29 492.227 522.472 491.131 491.54 C 504.858 491.351 519.035 491.541 532.801 491.545 C 531.56 480.901 532.575 460.561 532.971 449.509 C 540.645 450.447 564.802 451.801 571.323 448.632 C 575.414 444.213 573.16 419.796 573.888 409.801 C 586.747 409.186 601.751 409.444 614.659 409.616 C 641.461 410.184 669.1 409.569 695.975 409.597 C 736.991 409.823 778.008 409.705 819.022 409.243 C 841.841 409.422 879.721 410.743 901.803 409.297 C 908.775 409.309 939.59 408.877 944.674 409.665 L 949.497 409.671 C 984.659 408.041 1028.93 409.682 1065.02 409.482 C 1078.67 409.609 1092.32 409.645 1105.96 409.589 C 1116.14 409.84 1126.32 409.872 1136.49 409.687 C 1160.95 408.107 1203.38 409.433 1228.9 409.411 L 1229.12 368.093 z"/>
<path transform="translate(0,0)" fill="rgb(21,32,48)" d="M 1556.28 695.858 L 1557.03 696.249 C 1584.04 695.919 1611.06 695.935 1638.07 696.296 C 1638.15 709.327 1638.72 725.142 1637.83 737.761 C 1651.8 737.259 1664.94 737.333 1678.93 737.465 C 1680.5 769.735 1679.2 804.149 1678.92 836.448 L 1679.03 942.073 C 1665.94 942.06 1651.32 942.379 1638.37 941.969 C 1638.23 955.659 1638.17 969.349 1638.18 983.039 C 1624.08 982.113 1611.12 982.964 1597.17 982.811 L 1597.26 1278.74 C 1597.21 1327.83 1596.01 1385.28 1597.66 1433.75 C 1585.28 1433.02 1569.51 1433.51 1556.82 1433.68 C 1556.66 1446.14 1557.13 1462.89 1556.51 1474.85 C 1542.91 1474.3 1528.15 1475.12 1515.24 1474.37 C 1515.29 1486.75 1515.78 1502.74 1515.14 1514.84 L 1434.79 1515.06 C 1436.46 1523.42 1433.7 1544.71 1433.94 1556.62 L 1380.68 1556.66 C 1373.69 1556.68 1357.84 1557.04 1351.55 1556.23 C 1327.86 1554.98 1294.65 1556.15 1269.94 1556.08 C 1268.52 1448.2 1269.86 1336.9 1269.85 1228.75 L 1269.85 1146.97 C 1269.29 1130.34 1269.85 1111.61 1269.89 1094.81 L 1269.97 999.195 C 1269.98 985.379 1270.92 954.532 1269.49 942.097 C 1255.99 942.28 1242.49 942.249 1229 942.003 L 1228.88 901.116 L 1187.87 901.26 L 1188.01 860.107 L 1188.02 819.015 L 1147.09 819.004 L 1147.34 778.038 C 1146.85 764.923 1147.07 750.384 1147.01 737.157 L 1313.31 737.354 C 1338.55 737.325 1368 736.469 1392.94 737.211 C 1404.92 737.857 1421.53 737.287 1433.88 737.203 L 1433.92 696.401 C 1471.95 697.02 1518.4 696.69 1556.28 695.858 z"/>
<path transform="translate(0,0)" fill="rgb(230,189,87)" d="M 1351.97 1105.91 L 1392.92 1106 L 1392.91 1188.93 L 1392.96 1515.15 L 1351.95 1515.63 C 1351.94 1527.32 1352.43 1545.05 1351.55 1556.23 C 1327.86 1554.98 1294.65 1556.15 1269.94 1556.08 C 1268.52 1448.2 1269.86 1336.9 1269.85 1228.75 L 1269.85 1146.97 L 1351.82 1146.99 L 1351.97 1105.91 z"/>
<path transform="translate(0,0)" fill="rgb(178,143,55)" d="M 1351.97 1105.91 L 1392.92 1106 L 1392.91 1188.93 C 1388.1 1187 1319.93 1187.97 1310.67 1187.98 C 1310.62 1201.64 1310.71 1215.3 1310.93 1228.96 L 1269.85 1228.75 L 1269.85 1146.97 L 1351.82 1146.99 L 1351.97 1105.91 z"/>
<path transform="translate(0,0)" fill="rgb(131,177,168)" d="M 1557.03 696.249 C 1584.04 695.919 1611.06 695.935 1638.07 696.296 C 1638.15 709.327 1638.72 725.142 1637.83 737.761 C 1651.8 737.259 1664.94 737.333 1678.93 737.465 C 1680.5 769.735 1679.2 804.149 1678.92 836.448 L 1679.03 942.073 C 1665.94 942.06 1651.32 942.379 1638.37 941.969 C 1638.23 955.659 1638.17 969.349 1638.18 983.039 C 1624.08 982.113 1611.12 982.964 1597.17 982.811 C 1583.63 982.973 1570.08 983.03 1556.54 982.982 L 1515.42 982.929 L 1474.85 983.056 L 1474.95 860.109 L 1515.53 860.138 C 1515.78 846.649 1515.63 832.642 1515.67 819.107 L 1597.33 819.113 L 1597.15 778.014 L 1597.17 737.21 L 1556.33 737.276 C 1557.47 728.764 1557.02 705.912 1557.03 696.249 z"/>
<path transform="translate(0,0)" fill="rgb(21,32,48)" d="M 1557.03 696.249 C 1584.04 695.919 1611.06 695.935 1638.07 696.296 C 1638.15 709.327 1638.72 725.142 1637.83 737.761 C 1651.8 737.259 1664.94 737.333 1678.93 737.465 C 1680.5 769.735 1679.2 804.149 1678.92 836.448 L 1679.03 942.073 C 1665.94 942.06 1651.32 942.379 1638.37 941.969 C 1637.69 904.387 1639.39 865.481 1638.73 827.735 C 1638.45 812.178 1639.41 793.972 1638.18 778.758 C 1633.72 777.253 1603.81 777.955 1597.15 778.014 L 1597.17 737.21 L 1556.33 737.276 C 1557.47 728.764 1557.02 705.912 1557.03 696.249 z"/>
<path transform="translate(0,0)" fill="rgb(81,131,126)" d="M 1638.18 778.758 C 1639.41 793.972 1638.45 812.178 1638.73 827.735 C 1639.39 865.481 1637.69 904.387 1638.37 941.969 C 1638.23 955.659 1638.17 969.349 1638.18 983.039 C 1624.08 982.113 1611.12 982.964 1597.17 982.811 C 1583.63 982.973 1570.08 983.03 1556.54 982.982 C 1556.14 969.833 1556.5 955.345 1556.58 942.09 L 1597.07 941.871 L 1597.18 901.275 C 1610.73 900.99 1624.29 901.007 1637.85 901.327 C 1637.78 865.528 1636.24 813.633 1638.18 778.758 z"/>
<path transform="translate(0,0)" fill="rgb(21,32,48)" d="M 1597.07 941.956 L 1638.37 941.969 C 1638.23 955.659 1638.17 969.349 1638.18 983.039 C 1624.08 982.113 1611.12 982.964 1597.17 982.811 C 1597.28 969.248 1597.13 955.533 1597.07 941.956 z"/>
<path transform="translate(0,0)" fill="rgb(131,177,168)" d="M 1474.87 1106.11 L 1555.88 1106.01 L 1555.93 1392.7 C 1542.67 1392.6 1528.37 1392.76 1515.2 1392.28 L 1515.09 1433.12 L 1474.75 1433.12 L 1474.94 1473.89 C 1464.32 1473.86 1443.84 1473.27 1433.75 1474.51 L 1433.86 1146.87 L 1474.79 1146.91 C 1474.8 1133.4 1474.67 1119.59 1474.87 1106.11 z"/>
<path transform="translate(0,0)" fill="rgb(230,189,87)" d="M 1392.86 860.432 C 1405.92 860.256 1418.88 860.411 1431.96 860.095 C 1433.99 857.636 1433.42 855.498 1433.76 851.571 L 1433.59 1064.88 L 1351.81 1065 C 1351.84 1078.31 1351.6 1092.7 1351.97 1105.91 L 1351.82 1146.99 L 1269.85 1146.97 C 1269.29 1130.34 1269.85 1111.61 1269.89 1094.81 L 1269.97 999.195 C 1269.98 985.379 1270.92 954.532 1269.49 942.097 C 1255.99 942.28 1242.49 942.249 1229 942.003 L 1228.88 901.116 C 1242.4 901.137 1256.34 901.341 1269.82 901.137 C 1283.32 901.169 1297.22 901.023 1310.68 901.266 C 1337.91 901.542 1365.61 901.239 1392.87 901.188 C 1392.64 887.77 1392.84 873.889 1392.86 860.432 z"/>
<path transform="translate(0,0)" fill="rgb(21,32,48)" d="M 1228.88 901.116 C 1242.4 901.137 1256.34 901.341 1269.82 901.137 C 1283.32 901.169 1297.22 901.023 1310.68 901.266 C 1309.84 968.332 1310.37 1038.83 1310.81 1105.98 C 1324.12 1105.95 1338.79 1105.6 1351.97 1105.91 L 1351.82 1146.99 L 1269.85 1146.97 C 1269.29 1130.34 1269.85 1111.61 1269.89 1094.81 L 1269.97 999.195 C 1269.98 985.379 1270.92 954.532 1269.49 942.097 C 1255.99 942.28 1242.49 942.249 1229 942.003 L 1228.88 901.116 z"/>
<path transform="translate(0,0)" fill="rgb(243,239,208)" d="M 1147.34 778.038 L 1311.01 778.095 L 1351.64 778.012 L 1351.77 819.169 L 1433.66 819.176 L 1433.76 851.571 C 1433.42 855.498 1433.99 857.636 1431.96 860.095 C 1418.88 860.411 1405.92 860.256 1392.86 860.432 C 1392.84 873.889 1392.64 887.77 1392.87 901.188 C 1365.61 901.239 1337.91 901.542 1310.68 901.266 C 1297.22 901.023 1283.32 901.169 1269.82 901.137 C 1256.34 901.341 1242.4 901.137 1228.88 901.116 L 1187.87 901.26 L 1188.01 860.107 L 1188.02 819.015 L 1147.09 819.004 L 1147.34 778.038 z"/>
<path transform="translate(0,0)" fill="rgb(230,189,87)" d="M 1147.34 778.038 L 1311.01 778.095 L 1310.96 819.125 C 1284.69 819.203 1255.01 818.562 1228.98 819.352 L 1228.99 860.089 L 1269.87 860.25 L 1269.82 901.137 C 1256.34 901.341 1242.4 901.137 1228.88 901.116 L 1187.87 901.26 L 1188.01 860.107 L 1188.02 819.015 L 1147.09 819.004 L 1147.34 778.038 z"/>
<path transform="translate(0,0)" fill="rgb(21,32,48)" d="M 1188.01 860.107 L 1228.94 860.05 L 1228.88 901.116 L 1187.87 901.26 L 1188.01 860.107 z"/>
<path transform="translate(0,0)" fill="rgb(131,177,168)" d="M 1556.28 695.858 L 1557.03 696.249 C 1557.02 705.912 1557.47 728.764 1556.33 737.276 L 1597.17 737.21 L 1597.15 778.014 L 1515.15 778.037 L 1515.26 818.953 L 1433.67 818.994 L 1433.84 778.172 C 1422.06 777.566 1405.07 778.117 1392.88 778.12 L 1392.94 737.211 C 1404.92 737.857 1421.53 737.287 1433.88 737.203 L 1433.92 696.401 C 1471.95 697.02 1518.4 696.69 1556.28 695.858 z"/>
<path transform="translate(0,0)" fill="rgb(81,131,126)" d="M 1556.28 695.858 L 1557.03 696.249 C 1557.02 705.912 1557.47 728.764 1556.33 737.276 C 1555.25 728.555 1555.96 706.839 1556.03 697.035 L 1474.09 697.05 C 1474.72 724.078 1474.87 751.114 1474.54 778.146 C 1460.97 778.34 1447.41 778.348 1433.84 778.172 C 1422.06 777.566 1405.07 778.117 1392.88 778.12 L 1392.94 737.211 C 1404.92 737.857 1421.53 737.287 1433.88 737.203 L 1433.92 696.401 C 1471.95 697.02 1518.4 696.69 1556.28 695.858 z"/>
<path transform="translate(0,0)" fill="rgb(81,131,126)" d="M 1515.67 1024.06 L 1556.65 1024.04 L 1556.94 1291.71 C 1556.93 1337.58 1555.8 1388.21 1556.82 1433.68 C 1556.66 1446.14 1557.13 1462.89 1556.51 1474.85 C 1542.91 1474.3 1528.15 1475.12 1515.24 1474.37 C 1500.86 1475.27 1483.41 1474.71 1468.77 1474.97 C 1459.73 1475.14 1441.72 1475.55 1433.75 1474.51 C 1443.84 1473.27 1464.32 1473.86 1474.94 1473.89 L 1474.75 1433.12 L 1515.09 1433.12 L 1515.2 1392.28 C 1528.37 1392.76 1542.67 1392.6 1555.93 1392.7 L 1555.88 1106.01 L 1474.87 1106.11 C 1474.67 1119.59 1474.8 1133.4 1474.79 1146.91 L 1433.86 1146.87 L 1434.02 1065.04 L 1515.58 1064.87 L 1515.67 1024.06 z"/>
<path transform="translate(0,0)" fill="rgb(21,32,48)" d="M 1515.25 1433.2 C 1529.11 1433.12 1542.97 1433.28 1556.82 1433.68 C 1556.66 1446.14 1557.13 1462.89 1556.51 1474.85 C 1542.91 1474.3 1528.15 1475.12 1515.24 1474.37 C 1514.96 1460.87 1515.2 1446.76 1515.25 1433.2 z"/>
<path transform="translate(0,0)" fill="rgb(81,131,126)" d="M 1474.85 983.056 L 1515.42 982.929 C 1515.16 996.599 1515.09 1010.27 1515.23 1023.95 L 1474.83 1024.06 C 1474.69 1010.49 1474.84 996.651 1474.85 983.056 z"/>
<path transform="translate(0,0)" fill="rgb(21,32,48)" d="M 1229.12 368.093 L 1382.75 367.377 C 1395.52 367.248 1422.13 368.841 1432.95 366.717 C 1433.4 380.968 1433.56 395.227 1433.43 409.484 C 1447.12 409.64 1460.8 409.625 1474.48 409.439 C 1474.91 423.011 1474.9 436.593 1474.44 450.164 C 1484.19 450.574 1505.04 450.641 1515.1 450.108 C 1515.31 464.018 1515.33 477.929 1515.16 491.84 C 1528.34 491.872 1543.62 492.236 1556.57 491.296 C 1556.94 532.325 1556.95 573.356 1556.59 614.386 C 1544.85 614.485 1526.34 615.166 1515.16 614.351 L 1515.28 655.316 C 1529.1 654.962 1542.93 654.931 1556.76 655.224 C 1556.82 668.966 1556.3 682.272 1556.28 695.858 C 1518.4 696.69 1471.95 697.02 1433.92 696.401 L 1433.88 737.203 C 1421.53 737.287 1404.92 737.857 1392.94 737.211 C 1368 736.469 1338.55 737.325 1313.31 737.354 L 1147.01 737.157 L 1105.91 737.183 C 1092.26 737.283 1078.61 737.303 1064.97 737.243 L 942.186 737.123 C 941.925 723.636 942.091 709.736 942.102 696.214 L 942.054 655.125 L 901.01 655.095 L 901.055 614.759 C 889.35 614.413 870.981 615.545 859.983 614.26 L 860.078 573.19 L 819.089 573.174 C 818.758 559.951 819.02 545.549 818.994 532.228 L 737.222 532.241 L 737.282 491.676 C 715.909 491.755 675.231 493.106 655.035 491.382 C 655.225 478.027 655.089 464.36 655.102 450.978 L 696.397 450.838 C 696.775 437.937 696.185 422.668 695.975 409.597 C 736.991 409.823 778.008 409.705 819.022 409.243 C 841.841 409.422 879.721 410.743 901.803 409.297 C 908.775 409.309 939.59 408.877 944.674 409.665 L 949.497 409.671 C 984.659 408.041 1028.93 409.682 1065.02 409.482 C 1078.67 409.609 1092.32 409.645 1105.96 409.589 C 1116.14 409.84 1126.32 409.872 1136.49 409.687 C 1160.95 408.107 1203.38 409.433 1228.9 409.411 L 1229.12 368.093 z"/>
<path transform="translate(0,0)" fill="rgb(178,143,55)" d="M 1392.98 532.508 C 1420.25 533.159 1447.61 532.593 1474.88 532.832 L 1474.92 573.415 C 1488.32 573.342 1501.72 573.34 1515.13 573.411 L 1515.08 614.377 C 1501.98 614.415 1487.98 614.701 1474.94 614.428 L 1474.94 655.218 L 1433.73 655.128 L 1433.66 696.097 L 1392.89 696.448 L 1392.94 737.211 C 1368 736.469 1338.55 737.325 1313.31 737.354 L 1147.01 737.157 L 1105.91 737.183 L 1105.87 655.075 L 1105.97 614.289 C 1116.96 614.788 1136.21 615.154 1147.05 614.447 C 1158.5 615.405 1176.12 614.811 1188.08 614.73 C 1188.06 628.08 1187.88 641.779 1188.07 655.098 L 1268.34 655.049 C 1281.41 655.043 1298.04 654.58 1310.85 655.164 C 1323.89 655.639 1338.51 655.235 1351.7 655.117 C 1351.59 647.262 1350.8 620.925 1352.7 614.517 C 1366.12 614.617 1379.53 614.531 1392.95 614.257 L 1392.98 532.508 z"/>
<path transform="translate(0,0)" fill="rgb(21,32,48)" d="M 1105.97 614.289 C 1116.96 614.788 1136.21 615.154 1147.05 614.447 C 1158.5 615.405 1176.12 614.811 1188.08 614.73 C 1188.06 628.08 1187.88 641.779 1188.07 655.098 L 1268.34 655.049 C 1281.41 655.043 1298.04 654.58 1310.85 655.164 L 1310.65 696.267 L 1147.07 696.274 L 1147.01 737.157 L 1105.91 737.183 L 1105.87 655.075 L 1105.97 614.289 z"/>
<path transform="translate(0,0)" fill="rgb(178,143,55)" d="M 1105.97 614.289 C 1116.96 614.788 1136.21 615.154 1147.05 614.447 L 1147.08 655.185 L 1105.87 655.075 L 1105.97 614.289 z"/>
<path transform="translate(0,0)" fill="rgb(230,189,87)" d="M 1228.96 409.604 L 1310.95 409.53 C 1351.59 409.698 1392.83 410.067 1433.44 409.637 L 1433.66 450.83 L 1474.88 450.943 C 1474.91 464.394 1474.83 477.988 1475.01 491.425 L 1392.85 491.48 L 1392.77 532.177 L 1228.95 532.246 L 1228.98 573.152 L 1188.03 573.19 L 1188.08 614.158 C 1181.09 613.784 1152.66 613.112 1147.05 614.447 C 1136.21 615.154 1116.96 614.788 1105.97 614.289 L 1105.93 532.425 C 1119.02 532.914 1133.52 532.286 1146.97 532.508 L 1147.05 491.413 C 1160.51 491.138 1174.48 491.272 1187.98 491.218 L 1187.93 450.893 L 1228.9 450.768 L 1228.96 409.604 z"/>
<path transform="translate(0,0)" fill="rgb(243,239,208)" d="M 1228.96 409.604 L 1310.95 409.53 L 1310.84 450.669 C 1324.5 450.774 1338.16 450.787 1351.82 450.709 C 1351.81 464.227 1351.95 478.065 1351.73 491.554 C 1324.49 491.952 1297.25 491.962 1270.01 491.583 C 1269.88 478.009 1269.85 464.435 1269.92 450.861 L 1229.02 451.072 L 1228.68 491.25 L 1188.13 491.81 L 1187.86 531.986 C 1177.72 532.153 1156.19 533.169 1146.97 532.508 L 1147.05 491.413 C 1160.51 491.138 1174.48 491.272 1187.98 491.218 L 1187.93 450.893 L 1228.9 450.768 L 1228.96 409.604 z"/>
<path transform="translate(0,0)" fill="rgb(230,189,87)" d="M 819.022 409.243 C 819.258 423.124 819.312 437.007 819.183 450.89 L 860.156 450.906 L 860.053 491.404 C 873.574 491.382 887.564 491.168 901.043 491.371 L 901.034 532.756 C 914.403 532.732 928.831 532.448 942.109 532.817 C 942.093 559.606 941.724 587.209 942.109 613.929 C 929.849 614.317 919.429 614.469 907.274 614.278 C 894.567 614.078 872.131 612.761 859.983 614.26 L 860.078 573.19 L 819.089 573.174 C 818.758 559.951 819.02 545.549 818.994 532.228 L 737.222 532.241 L 737.282 491.676 C 715.909 491.755 675.231 493.106 655.035 491.382 C 655.225 478.027 655.089 464.36 655.102 450.978 L 696.397 450.838 C 696.775 437.937 696.185 422.668 695.975 409.597 C 736.991 409.823 778.008 409.705 819.022 409.243 z"/>
<path transform="translate(0,0)" fill="rgb(243,239,208)" d="M 819.022 409.243 C 819.258 423.124 819.312 437.007 819.183 450.89 L 860.156 450.906 L 860.053 491.404 C 847.134 491.943 832.392 491.773 819.321 491.936 C 819.083 478.342 819.129 464.511 819.042 450.894 L 777.948 450.864 L 777.963 491.485 C 739.367 491.762 693.144 489.554 655.035 491.382 C 655.225 478.027 655.089 464.36 655.102 450.978 L 696.397 450.838 C 696.775 437.937 696.185 422.668 695.975 409.597 C 736.991 409.823 778.008 409.705 819.022 409.243 z"/>
<path transform="translate(0,0)" fill="rgb(243,239,208)" d="M 942.109 613.929 C 969.649 614.598 997.783 613.708 1025.36 614.018 C 1037.56 614.154 1053.06 613.458 1064.96 614.481 L 1065.03 655.156 L 1074.45 655.22 C 1084.92 655.031 1095.4 654.983 1105.87 655.075 L 1105.91 737.183 C 1092.26 737.283 1078.61 737.303 1064.97 737.243 L 942.186 737.123 C 941.925 723.636 942.091 709.736 942.102 696.214 L 942.054 655.125 L 901.01 655.095 L 901.055 614.759 C 889.35 614.413 870.981 615.545 859.983 614.26 C 872.131 612.761 894.567 614.078 907.274 614.278 C 919.429 614.469 929.849 614.317 942.109 613.929 z"/>
<path transform="translate(0,0)" fill="rgb(230,189,87)" d="M 1065.03 655.156 L 1074.45 655.22 C 1084.92 655.031 1095.4 654.983 1105.87 655.075 L 1105.91 737.183 C 1092.26 737.283 1078.61 737.303 1064.97 737.243 L 942.186 737.123 C 941.925 723.636 942.091 709.736 942.102 696.214 C 962.905 697.608 1001.48 696.361 1023.91 696.405 L 1023.92 655.02 L 1065.03 655.156 z"/>
<path transform="translate(0,0)" fill="rgb(178,143,55)" d="M 1074.45 655.22 C 1084.92 655.031 1095.4 654.983 1105.87 655.075 L 1105.91 737.183 C 1092.26 737.283 1078.61 737.303 1064.97 737.243 L 1064.94 696.313 L 1105.01 696.329 C 1104.9 682.904 1104.89 669.48 1104.97 656.055 C 1096.78 656.046 1081.75 656.611 1074.45 655.22 z"/>
<path transform="translate(0,0)" fill="rgb(178,143,55)" d="M 942.109 613.929 C 969.649 614.598 997.783 613.708 1025.36 614.018 C 1037.56 614.154 1053.06 613.458 1064.96 614.481 C 1026.93 616.521 980.966 614.027 942.038 614.96 L 942.054 655.125 L 901.01 655.095 L 901.055 614.759 C 889.35 614.413 870.981 615.545 859.983 614.26 C 872.131 612.761 894.567 614.078 907.274 614.278 C 919.429 614.469 929.849 614.317 942.109 613.929 z"/>
<path transform="translate(0,0)" fill="rgb(131,177,168)" d="M 983.036 450.718 L 1065.01 450.798 L 1064.96 491.547 C 1078.44 491.354 1091.93 491.37 1105.42 491.598 L 1105.75 532.2 L 1065 532.071 L 1065.02 573.206 L 982.993 573.124 L 983.007 532.159 L 942.567 532.148 C 942.278 518.767 942.402 504.864 942.334 491.438 C 955.674 491.171 969.684 491.378 983.078 491.367 L 983.036 450.718 z"/>
<path transform="translate(0,0)" fill="rgb(178,143,55)" d="M 1188.03 573.19 L 1228.98 573.152 C 1269.4 573.672 1311.9 572.462 1351.79 573.488 C 1351.71 580.862 1351.08 608.311 1352.27 614.237 C 1338.57 614.313 1324.55 614.238 1310.88 614.522 L 1310.85 655.164 C 1298.04 654.58 1281.41 655.043 1268.34 655.049 L 1188.07 655.098 C 1187.88 641.779 1188.06 628.08 1188.08 614.73 C 1176.12 614.811 1158.5 615.405 1147.05 614.447 C 1152.66 613.112 1181.09 613.784 1188.08 614.158 L 1188.03 573.19 z"/>
<path transform="translate(0,0)" fill="rgb(21,32,48)" d="M 1188.03 573.19 L 1228.98 573.152 L 1229.02 614.272 C 1221.16 614.374 1194.98 615.175 1188.08 614.158 L 1188.03 573.19 z"/>
<path transform="translate(0,0)" fill="rgb(21,32,48)" d="M 949.497 409.671 C 984.659 408.041 1028.93 409.682 1065.02 409.482 L 1065.01 450.798 L 983.036 450.718 L 982.911 449.781 C 983.234 436.821 982.981 422.761 983.002 409.71 C 971.834 409.754 960.665 409.741 949.497 409.671 z"/>
<path transform="translate(0,0)" fill="rgb(202,201,201)" d="M 901.803 409.297 C 908.775 409.309 939.59 408.877 944.674 409.665 L 949.497 409.671 C 960.665 409.741 971.834 409.754 983.002 409.71 C 982.981 422.761 983.234 436.821 982.911 449.781 L 983.036 450.718 C 956.476 451.424 927.728 450.833 901 450.734 C 900.981 444.416 900.308 412.081 901.803 409.297 z"/>
<path transform="translate(0,0)" fill="rgb(254,254,254)" d="M 949.497 409.671 C 960.665 409.741 971.834 409.754 983.002 409.71 C 982.981 422.761 983.234 436.821 982.911 449.781 L 941.972 449.807 C 942.005 440.817 941.458 418.399 942.506 410.771 L 944.674 409.665 L 949.497 409.671 z"/>
<path transform="translate(0,0)" fill="rgb(202,201,201)" d="M 1065.02 409.482 C 1078.67 409.609 1092.32 409.645 1105.96 409.589 C 1116.14 409.84 1126.32 409.872 1136.49 409.687 C 1139.69 409.705 1144.17 409.302 1146.71 410.817 C 1147.65 421.425 1147.06 439.201 1146.98 450.444 C 1138.34 451.428 1125.22 451.025 1116.25 451.003 L 1065.01 450.798 L 1065.02 409.482 z"/>
<path transform="translate(0,0)" fill="rgb(254,254,254)" d="M 1136.49 409.687 C 1139.69 409.705 1144.17 409.302 1146.71 410.817 C 1147.65 421.425 1147.06 439.201 1146.98 450.444 C 1136.36 449.188 1117.11 449.834 1105.8 449.9 C 1105.67 436.599 1105.9 422.921 1105.96 409.589 C 1116.14 409.84 1126.32 409.872 1136.49 409.687 z"/>
<path transform="translate(0,0)" fill="rgb(230,189,87)" d="M 1475.01 491.425 L 1514.98 491.475 L 1515.09 532.224 L 1475.06 532.189 L 1475.01 491.425 z"/>
<path transform="translate(0,0)" fill="rgb(21,32,48)" d="M 573.888 409.801 C 586.747 409.186 601.751 409.444 614.659 409.616 C 641.461 410.184 669.1 409.569 695.975 409.597 C 696.185 422.668 696.775 437.937 696.397 450.838 L 655.102 450.978 C 655.089 464.36 655.225 478.027 655.035 491.382 C 675.231 493.106 715.909 491.755 737.282 491.676 L 737.222 532.241 L 818.994 532.228 C 819.02 545.549 818.758 559.951 819.089 573.174 L 860.078 573.19 L 859.983 614.26 C 870.981 615.545 889.35 614.413 901.055 614.759 L 901.01 655.095 L 942.054 655.125 L 942.102 696.214 C 942.091 709.736 941.925 723.636 942.186 737.123 C 942.248 763.978 942.695 792.218 942.15 819.016 L 900.877 818.994 L 860.026 819.032 L 860.071 860.036 L 860.104 901.236 L 819.097 901.143 L 778.203 901.082 L 737.216 901.094 C 709.833 900.969 682.449 901.08 655.068 901.428 L 655.01 860.216 C 641.946 859.894 627.941 860.253 614.794 860.389 C 614.955 853.531 614.936 846.67 614.736 839.812 L 614.782 819.241 C 641.649 818.791 669.606 819.168 696.561 819.151 C 695.39 810.016 696.035 788.264 696.084 778.021 L 614.408 778.05 C 614.193 791.687 614.226 805.326 614.508 818.961 L 532.771 819.078 L 532.921 777.92 L 450.943 778.155 C 451.214 765.303 451.254 750.055 450.714 737.291 C 451.214 722.384 446.169 717.141 447.361 708.017 L 448.48 707.277 L 450.33 712.047 C 451.137 709.317 451.009 699.832 451.06 696.473 C 467.106 694.159 475.686 693.544 491.55 696.358 C 491.756 683.531 491.911 667.761 491.145 655.096 C 504.626 655.69 519.077 655.389 532.652 655.319 C 531.986 643.041 532.71 627.543 532.38 614.58 C 521.192 613.724 502.947 614.343 491.428 614.435 C 491.561 604.429 491.636 594.236 491.334 584.237 C 490.399 553.29 492.227 522.472 491.131 491.54 C 504.858 491.351 519.035 491.541 532.801 491.545 C 531.56 480.901 532.575 460.561 532.971 449.509 C 540.645 450.447 564.802 451.801 571.323 448.632 C 575.414 444.213 573.16 419.796 573.888 409.801 z"/>
<path transform="translate(0,0)" fill="rgb(178,143,55)" d="M 573.222 532.552 C 599.8 533.177 628.316 532.713 655.007 532.744 L 655.058 614.441 C 680.984 615.259 710.724 614.321 737.157 614.416 C 764.362 614.07 791.928 614.253 819.162 614.219 L 819.089 573.174 L 860.078 573.19 L 859.983 614.26 C 870.981 615.545 889.35 614.413 901.055 614.759 L 901.01 655.095 L 901.065 696.252 C 866.294 696.851 829.865 696.233 794.979 696.234 L 614.453 696.171 C 614.232 682.497 614.141 668.822 614.182 655.147 L 573.285 655.071 L 573.419 614.298 L 532.853 614.303 L 533.002 573.65 C 546.303 573.404 559.94 573.494 573.27 573.433 C 573.402 559.902 573.24 546.107 573.222 532.552 z"/>
<path transform="translate(0,0)" fill="rgb(21,32,48)" d="M 819.089 573.174 L 860.078 573.19 L 859.983 614.26 C 870.981 615.545 889.35 614.413 901.055 614.759 L 901.01 655.095 C 847.139 656.255 791.315 655.231 737.179 655.478 L 737.157 614.416 C 764.362 614.07 791.928 614.253 819.162 614.219 L 819.089 573.174 z"/>
<path transform="translate(0,0)" fill="rgb(243,239,208)" d="M 737.256 777.99 C 750.049 778.03 765.445 777.659 778.018 778.214 C 818.828 778.408 860.328 777.519 901.041 778.226 L 900.877 818.994 L 860.026 819.032 L 860.071 860.036 L 860.104 901.236 L 819.097 901.143 L 778.203 901.082 L 737.216 901.094 C 709.833 900.969 682.449 901.08 655.068 901.428 L 655.01 860.216 C 641.946 859.894 627.941 860.253 614.794 860.389 C 614.955 853.531 614.936 846.67 614.736 839.812 L 614.782 819.241 C 641.649 818.791 669.606 819.168 696.561 819.151 C 697.694 812.623 696.967 785.405 696.691 777.977 L 737.256 777.99 z"/>
<path transform="translate(0,0)" fill="rgb(230,189,87)" d="M 737.256 777.99 C 750.049 778.03 765.445 777.659 778.018 778.214 C 818.828 778.408 860.328 777.519 901.041 778.226 L 900.877 818.994 L 860.026 819.032 L 860.071 860.036 L 860.104 901.236 L 819.097 901.143 L 778.203 901.082 L 777.916 860.372 C 791.606 860.147 805.299 860.036 818.991 860.039 C 819.419 846.809 819.27 832.942 819.298 819.656 C 793.632 818.422 763.352 819.549 737.003 819.265 C 736.949 805.506 737.033 791.747 737.256 777.99 z"/>
<path transform="translate(0,0)" fill="rgb(21,32,48)" d="M 819.155 860.075 C 832.74 860.208 846.473 860.074 860.071 860.036 L 860.104 901.236 L 819.097 901.143 L 819.155 860.075 z"/>
<path transform="translate(0,0)" fill="rgb(131,177,168)" d="M 451.06 696.473 C 467.106 694.159 475.686 693.544 491.55 696.358 C 531.673 694.889 573.906 696.89 614.246 696.325 C 614.495 709.911 614.552 723.499 614.415 737.087 C 640.902 737.285 670.032 736.49 696.061 737.278 C 696.038 745.56 695.566 771.466 696.691 777.977 C 696.967 785.405 697.694 812.623 696.561 819.151 C 695.39 810.016 696.035 788.264 696.084 778.021 L 614.408 778.05 C 614.193 791.687 614.226 805.326 614.508 818.961 L 532.771 819.078 L 532.921 777.92 L 450.943 778.155 C 451.214 765.303 451.254 750.055 450.714 737.291 C 451.214 722.384 446.169 717.141 447.361 708.017 L 448.48 707.277 L 450.33 712.047 C 451.137 709.317 451.009 699.832 451.06 696.473 z"/>
<path transform="translate(0,0)" fill="rgb(81,131,126)" d="M 491.55 696.358 C 531.673 694.889 573.906 696.89 614.246 696.325 C 614.495 709.911 614.552 723.499 614.415 737.087 C 600.808 737.394 586.837 737.332 573.197 737.423 C 573.129 723.808 573.025 710.684 573.6 697.079 L 492.127 697.019 C 492.217 704.063 492.182 710.02 491.827 717.046 C 491.143 710.416 491.216 703.011 491.55 696.358 z"/>
<path transform="translate(0,0)" fill="rgb(21,32,48)" d="M 451.06 696.473 C 467.106 694.159 475.686 693.544 491.55 696.358 C 491.216 703.011 491.143 710.416 491.827 717.046 L 491.862 737.215 C 478.147 737.378 464.43 737.403 450.714 737.291 C 451.214 722.384 446.169 717.141 447.361 708.017 L 448.48 707.277 L 450.33 712.047 C 451.137 709.317 451.009 699.832 451.06 696.473 z"/>
<path transform="translate(0,0)" fill="rgb(178,143,55)" d="M 942.186 737.123 C 942.248 763.978 942.695 792.218 942.15 819.016 L 900.877 818.994 L 901.041 778.226 C 860.328 777.519 818.828 778.408 778.018 778.214 L 777.967 737.209 L 942.186 737.123 z"/>
<path transform="translate(0,0)" fill="rgb(230,189,87)" d="M 614.659 409.616 C 641.461 410.184 669.1 409.569 695.975 409.597 C 696.185 422.668 696.775 437.937 696.397 450.838 L 655.102 450.978 C 655.089 464.36 655.225 478.027 655.035 491.382 L 573.122 491.503 L 573.233 450.664 C 586.369 451.138 601.181 450.849 614.446 450.868 C 614.286 437.127 613.917 423.331 614.659 409.616 z"/>
<path transform="translate(0,0)" fill="rgb(178,143,55)" d="M 819.089 573.174 L 819.162 614.219 C 791.928 614.253 764.362 614.07 737.157 614.416 C 736.939 600.901 737.202 586.755 737.252 573.192 C 764.531 573.46 791.811 573.454 819.089 573.174 z"/>
<path transform="translate(0,0)" fill="rgb(178,143,55)" d="M 696.715 532.604 L 737.243 532.635 C 737.22 546.022 737.023 559.845 737.252 573.192 L 696.267 573.066 C 696.222 566.859 695.735 536.916 696.715 532.604 z"/>
<path transform="translate(0,0)" fill="rgb(230,189,87)" d="M 532.801 491.545 C 546.235 491.438 559.669 491.494 573.101 491.714 L 573.113 532.186 L 532.945 532.182 C 532.922 519.754 533.382 503.657 532.801 491.545 z"/>
<path transform="translate(0,0)" fill="rgb(131,177,168)" d="M 942.186 737.123 L 1064.97 737.243 C 1078.61 737.303 1092.26 737.283 1105.91 737.183 L 1147.01 737.157 C 1147.07 750.384 1146.85 764.923 1147.34 778.038 L 1147.09 819.004 L 1188.02 819.015 L 1188.01 860.107 L 1187.87 901.26 L 1228.88 901.116 L 1229 942.003 C 1242.49 942.249 1255.99 942.28 1269.49 942.097 C 1270.92 954.532 1269.98 985.379 1269.97 999.195 L 1269.89 1094.81 C 1269.85 1111.61 1269.29 1130.34 1269.85 1146.97 C 1255.63 1146.9 1241.4 1146.9 1227.18 1146.98 L 1187.84 1146.86 L 1187.97 1187.87 C 1167.07 1187.9 1145.57 1188.44 1124.75 1187.85 L 1106.02 1187.89 C 1092.35 1187.76 1078.69 1187.76 1065.03 1187.89 L 1065 1023.97 L 983.037 1023.99 C 982.716 1010.78 983.021 996.255 983.019 982.933 L 901.093 982.945 C 874.563 983.583 845.876 983.075 819.172 983.113 L 819.11 942.165 L 819.097 901.143 L 860.104 901.236 L 860.071 860.036 L 860.026 819.032 L 900.877 818.994 L 942.15 819.016 C 942.695 792.218 942.248 763.978 942.186 737.123 z"/>
<path transform="translate(0,0)" fill="rgb(131,177,168)" d="M 1229 942.003 C 1242.49 942.249 1255.99 942.28 1269.49 942.097 C 1270.92 954.532 1269.98 985.379 1269.97 999.195 L 1269.89 1094.81 C 1269.85 1111.61 1269.29 1130.34 1269.85 1146.97 C 1255.63 1146.9 1241.4 1146.9 1227.18 1146.98 L 1187.84 1146.86 L 1187.97 1187.87 C 1167.07 1187.9 1145.57 1188.44 1124.75 1187.85 L 1106.02 1187.89 C 1092.35 1187.76 1078.69 1187.76 1065.03 1187.89 L 1065 1023.97 L 1147.02 1023.98 L 1147.03 982.992 L 1228.96 983.021 L 1229 942.003 z"/>
<path transform="translate(0,0)" fill="rgb(81,131,126)" d="M 1269.49 942.097 C 1270.92 954.532 1269.98 985.379 1269.97 999.195 L 1269.89 1094.81 C 1269.85 1111.61 1269.29 1130.34 1269.85 1146.97 C 1255.63 1146.9 1241.4 1146.9 1227.18 1146.98 L 1228.27 1146.01 C 1229.26 1142.59 1228.8 1112 1228.83 1105.88 L 1268.97 1105.94 L 1268.91 1000.64 C 1268.9 984.581 1268.16 957.316 1269.49 942.097 z"/>
<path transform="translate(0,0)" fill="rgb(81,131,126)" d="M 1146.95 1146.95 C 1160.51 1147.06 1174.26 1146.9 1187.84 1146.86 L 1187.97 1187.87 C 1167.07 1187.9 1145.57 1188.44 1124.75 1187.85 C 1131.14 1187.05 1140.38 1187.29 1147.07 1187.28 L 1146.95 1146.95 z"/>
<path transform="translate(0,0)" fill="rgb(21,32,48)" d="M 942.186 737.123 L 1064.97 737.243 C 1078.61 737.303 1092.26 737.283 1105.91 737.183 L 1147.01 737.157 C 1147.07 750.384 1146.85 764.923 1147.34 778.038 L 1147.09 819.004 L 1105.94 819.061 C 1092.83 819.545 1078.24 819.186 1065 819.105 L 1064.89 778.078 L 982.977 778.027 L 982.985 819.004 C 969.374 819.156 955.762 819.16 942.15 819.016 C 942.695 792.218 942.248 763.978 942.186 737.123 z"/>
<path transform="translate(0,0)" fill="rgb(178,143,55)" d="M 1105.91 737.183 L 1147.01 737.157 C 1147.07 750.384 1146.85 764.923 1147.34 778.038 L 1147.09 819.004 L 1105.94 819.061 C 1105.34 792.382 1105.83 763.958 1105.91 737.183 z"/>
<path transform="translate(0,0)" fill="rgb(81,131,126)" d="M 982.977 778.027 L 1064.89 778.078 L 1065 819.105 C 1078.24 819.186 1092.83 819.545 1105.94 819.061 L 1105.9 860.3 C 1092.68 859.923 1078.27 860.158 1064.96 860.11 L 1065.05 819.111 C 1037.68 819.38 1010.31 819.354 982.946 819.034 L 983.006 860.173 L 942.078 860.229 C 941.879 846.655 942.101 832.628 942.15 819.016 C 955.762 819.16 969.374 819.156 982.985 819.004 L 982.977 778.027 z"/>
<path transform="translate(0,0)" fill="rgb(21,32,48)" d="M 1105.94 819.061 L 1147.09 819.004 L 1188.02 819.015 L 1188.01 860.107 C 1161.89 860.48 1131.56 859.015 1105.9 860.3 L 1105.94 819.061 z"/>
<path transform="translate(0,0)" fill="rgb(21,32,48)" d="M 1064.96 982.932 L 1147.03 982.992 L 1147.02 1023.98 L 1065 1023.97 L 1064.96 982.932 z"/>
<path transform="translate(0,0)" fill="rgb(21,32,48)" d="M 900.877 818.994 L 942.15 819.016 C 942.101 832.628 941.879 846.655 942.078 860.229 C 933.688 859.505 920.503 859.93 911.695 859.971 L 860.071 860.036 L 860.026 819.032 L 900.877 818.994 z"/>
<path transform="translate(0,0)" fill="rgb(21,32,48)" d="M 819.11 942.165 L 901.136 941.875 L 901.093 982.945 C 874.563 983.583 845.876 983.075 819.172 983.113 L 819.11 942.165 z"/>
<path transform="translate(0,0)" fill="rgb(21,32,48)" d="M 1147 941.965 L 1229 942.003 L 1228.96 983.021 L 1147.03 982.992 L 1147 941.965 z"/>
<path transform="translate(0,0)" fill="rgb(81,131,126)" d="M 1105.9 860.3 C 1131.56 859.015 1161.89 860.48 1188.01 860.107 L 1187.87 901.26 C 1174.96 901.658 1160.01 901.248 1146.95 901.209 L 1146.97 860.943 C 1137.7 861.061 1114.06 861.716 1105.9 860.3 z"/>
<path transform="translate(0,0)" fill="rgb(81,131,126)" d="M 860.071 860.036 L 911.695 859.971 C 920.503 859.93 933.688 859.505 942.078 860.229 C 932.899 861.514 911.034 860.941 900.996 860.858 L 900.999 901.305 L 860.104 901.236 L 860.071 860.036 z"/>
<path transform="translate(0,0)" fill="rgb(131,177,168)" d="M 1227.18 1146.98 C 1241.4 1146.9 1255.63 1146.9 1269.85 1146.97 L 1269.85 1228.75 C 1269.86 1336.9 1268.52 1448.2 1269.94 1556.08 C 1294.65 1556.15 1327.86 1554.98 1351.55 1556.23 C 1350.44 1565.67 1351.02 1586.9 1351.07 1597.23 C 1328.33 1597.51 1292.99 1596.5 1271.63 1597.79 C 1269.08 1604.65 1273.58 1632.33 1269.79 1637.64 C 1259.71 1638.9 1227.24 1638.57 1214.9 1638.37 C 1194.44 1638.05 1166.43 1639.46 1146.75 1638.21 L 1106.06 1638.32 C 1092.64 1638.06 1078.45 1638.32 1064.98 1638.34 L 1065 1351.33 L 1064.98 1269.88 L 1106.01 1269.96 L 1105.95 1228.87 L 1106.02 1187.89 L 1124.75 1187.85 C 1145.57 1188.44 1167.07 1187.9 1187.97 1187.87 L 1187.84 1146.86 L 1227.18 1146.98 z"/>
<path transform="translate(0,0)" fill="rgb(21,32,48)" d="M 1227.18 1146.98 C 1241.4 1146.9 1255.63 1146.9 1269.85 1146.97 L 1269.85 1228.75 C 1269.86 1336.9 1268.52 1448.2 1269.94 1556.08 C 1294.65 1556.15 1327.86 1554.98 1351.55 1556.23 C 1350.44 1565.67 1351.02 1586.9 1351.07 1597.23 C 1328.33 1597.51 1292.99 1596.5 1271.63 1597.79 C 1269.08 1604.65 1273.58 1632.33 1269.79 1637.64 C 1259.71 1638.9 1227.24 1638.57 1214.9 1638.37 C 1194.44 1638.05 1166.43 1639.46 1146.75 1638.21 C 1147.41 1626.37 1146.94 1609.8 1146.96 1597.61 C 1157.6 1597.67 1175.26 1598.17 1185.47 1597.16 L 1187.74 1597.4 C 1200.13 1596.79 1216.18 1597.21 1228.85 1597.18 L 1228.93 1556.07 L 1228.98 1270.02 L 1228.88 1188.03 L 1187.97 1187.87 L 1187.84 1146.86 L 1227.18 1146.98 z"/>
<path transform="translate(0,0)" fill="rgb(81,131,126)" d="M 1187.97 1187.87 L 1228.88 1188.03 L 1228.98 1270.02 L 1146.95 1270.03 L 1146.99 1310.36 C 1133.35 1310.72 1119.71 1310.9 1106.07 1310.9 C 1106.04 1324.36 1105.88 1338.04 1106.01 1351.49 C 1092.4 1351.65 1078.58 1352.01 1065 1351.33 L 1064.98 1269.88 L 1106.01 1269.96 L 1105.95 1228.87 L 1106.02 1187.89 L 1124.75 1187.85 C 1145.57 1188.44 1167.07 1187.9 1187.97 1187.87 z"/>
<path transform="translate(0,0)" fill="rgb(21,32,48)" d="M 1124.75 1187.85 C 1145.57 1188.44 1167.07 1187.9 1187.97 1187.87 L 1187.94 1228.95 L 1105.95 1228.87 L 1106.02 1187.89 L 1124.75 1187.85 z"/>
<path transform="translate(0,0)" fill="rgb(81,131,126)" d="M 1105.68 1597.22 C 1131.63 1597.87 1160.08 1595.57 1185.47 1597.16 C 1175.26 1598.17 1157.6 1597.67 1146.96 1597.61 C 1146.94 1609.8 1147.41 1626.37 1146.75 1638.21 L 1106.06 1638.32 C 1105.6 1624.06 1105.36 1611.46 1105.68 1597.22 z"/>
<path transform="translate(0,0)" fill="rgb(81,131,126)" d="M 1187.67 1556.17 C 1201.42 1556.26 1215.18 1556.23 1228.93 1556.07 L 1228.85 1597.18 C 1216.18 1597.21 1200.13 1596.79 1187.74 1597.4 C 1187.49 1583.66 1187.46 1569.91 1187.67 1556.17 z"/>
<path transform="translate(0,0)" fill="rgb(21,32,48)" d="M 983.037 1023.99 L 1065 1023.97 L 1065.03 1187.89 C 1078.69 1187.76 1092.35 1187.76 1106.02 1187.89 L 1105.95 1228.87 L 1106.01 1269.96 L 1064.98 1269.88 L 1065 1351.33 L 1064.98 1638.34 C 1078.45 1638.32 1092.64 1638.06 1106.06 1638.32 L 1146.75 1638.21 C 1146.04 1649.48 1146.61 1667.36 1146.66 1678.95 C 1125.41 1679.63 1101.75 1678.41 1080.17 1678.55 L 901.184 1679.08 C 901.704 1664.94 901.491 1652.57 901.135 1638.4 C 917.921 1638.26 934.709 1638.35 951.492 1638.67 C 957.554 1638.74 977.339 1639.07 983.027 1638.24 L 982.99 1351.82 L 983.04 1269.88 C 969.549 1269.66 955.608 1269.82 942.078 1269.81 C 941.983 1256.16 941.997 1242.52 942.123 1228.88 C 942.349 1215.45 942.092 1201.44 942.025 1187.97 L 983.014 1187.99 L 983.037 1023.99 z"/>
<path transform="translate(0,0)" fill="rgb(81,131,126)" d="M 1065.03 1187.89 C 1078.69 1187.76 1092.35 1187.76 1106.02 1187.89 L 1105.95 1228.87 L 1065 1228.83 L 1065.03 1187.89 z"/>
<path transform="translate(0,0)" fill="rgb(81,131,126)" d="M 942.025 1187.97 L 983.014 1187.99 L 983.073 1228.85 L 942.123 1228.88 C 942.349 1215.45 942.092 1201.44 942.025 1187.97 z"/>
<path transform="translate(0,0)" fill="rgb(131,177,168)" d="M 860.158 1187.89 C 881.971 1187.89 908.995 1188.77 930.065 1187.83 L 942.025 1187.97 C 942.092 1201.44 942.349 1215.45 942.123 1228.88 C 941.997 1242.52 941.983 1256.16 942.078 1269.81 C 955.608 1269.82 969.549 1269.66 983.04 1269.88 L 982.99 1351.82 L 983.027 1638.24 C 977.339 1639.07 957.554 1638.74 951.492 1638.67 C 934.709 1638.35 917.921 1638.26 901.135 1638.4 C 900.442 1626.41 901.065 1609.83 900.831 1597.15 C 887.31 1597.35 873.475 1597.22 859.926 1597.25 C 846.482 1597.48 832.567 1597.3 819.083 1597.31 L 819.032 1556.37 L 818.987 1269.89 L 818.999 1188.08 C 832.718 1187.87 846.438 1187.81 860.158 1187.89 z"/>
<path transform="translate(0,0)" fill="rgb(81,131,126)" d="M 860.158 1187.89 C 881.971 1187.89 908.995 1188.77 930.065 1187.83 L 942.025 1187.97 C 942.092 1201.44 942.349 1215.45 942.123 1228.88 C 941.997 1242.52 941.983 1256.16 942.078 1269.81 C 955.608 1269.82 969.549 1269.66 983.04 1269.88 L 982.99 1351.82 C 969.759 1351.46 955.362 1351.69 942.017 1351.58 L 941.965 1310.94 C 929.116 1310.46 913.992 1310.85 900.969 1310.9 L 900.962 1269.98 L 818.987 1269.89 L 818.999 1188.08 C 832.718 1187.87 846.438 1187.81 860.158 1187.89 z"/>
<path transform="translate(0,0)" fill="rgb(21,32,48)" d="M 860.158 1187.89 C 881.971 1187.89 908.995 1188.77 930.065 1187.83 L 942.025 1187.97 C 942.092 1201.44 942.349 1215.45 942.123 1228.88 C 914.784 1229.04 887.445 1229.06 860.106 1228.93 C 859.964 1215.25 859.981 1201.57 860.158 1187.89 z"/>
<path transform="translate(0,0)" fill="rgb(81,131,126)" d="M 900.831 1597.15 L 942.245 1597.47 C 942.346 1610.92 942.279 1624.37 942.044 1637.82 C 953.242 1637.78 972.519 1637.24 983.027 1638.24 C 977.339 1639.07 957.554 1638.74 951.492 1638.67 C 934.709 1638.35 917.921 1638.26 901.135 1638.4 C 900.442 1626.41 901.065 1609.83 900.831 1597.15 z"/>
<path transform="translate(0,0)" fill="rgb(81,131,126)" d="M 819.032 1556.37 C 832.692 1556.1 846.356 1555.99 860.019 1556.05 C 860.08 1569.63 860.317 1583.71 859.926 1597.25 C 846.482 1597.48 832.567 1597.3 819.083 1597.31 L 819.032 1556.37 z"/>
<path transform="translate(0,0)" fill="rgb(21,32,48)" d="M 368.835 737.009 C 394.207 737.679 425.197 737.534 450.714 737.291 C 451.254 750.055 451.214 765.303 450.943 778.155 L 532.921 777.92 L 532.771 819.078 C 532.624 832.679 532.271 846.77 532.34 860.328 C 545.948 860.197 559.557 860.162 573.165 860.222 L 573.161 983.154 L 532.782 982.924 C 532.811 996.237 533.12 1010.79 532.732 1024 L 491.222 1024 L 491.201 1289.55 L 491.068 1361.01 C 491.093 1367.22 490.858 1387.12 491.709 1392.33 C 491.244 1405.36 491.951 1421.93 491.072 1434.02 C 477.895 1433.66 464.117 1433.91 450.886 1433.98 C 449.686 1423.02 450.185 1403.09 450.175 1391.72 L 450.857 1296.69 L 450.897 983.255 C 438.465 982.651 422.413 983.079 409.711 983.055 C 410.328 970.406 409.967 955.324 409.942 942.481 C 395.744 942.019 382.794 942.138 368.579 942.39 C 366.968 897.72 368.991 851.912 368.437 807.139 C 368.15 783.923 368.105 760.192 368.835 737.009 z"/>
<path transform="translate(0,0)" fill="rgb(131,177,168)" d="M 450.943 778.155 L 532.921 777.92 L 532.771 819.078 C 532.624 832.679 532.271 846.77 532.34 860.328 C 545.948 860.197 559.557 860.162 573.165 860.222 L 573.161 983.154 L 532.782 982.924 L 491.793 982.98 C 491.565 969.337 491.569 955.69 491.805 942.047 L 451.052 941.929 L 450.832 901.2 C 437.862 900.968 422.655 900.624 409.864 901.765 L 409.705 778.001 L 450.943 778.155 z"/>
<path transform="translate(0,0)" fill="rgb(21,32,48)" d="M 450.943 778.155 L 532.921 777.92 L 532.771 819.078 C 506.148 819.731 477.734 819.168 450.823 819.4 C 450.741 805.652 450.781 791.903 450.943 778.155 z"/>
<path transform="translate(0,0)" fill="rgb(81,131,126)" d="M 409.864 901.765 C 422.655 900.624 437.862 900.968 450.832 901.2 L 451.052 941.929 L 491.805 942.047 C 491.569 955.69 491.565 969.337 491.793 982.98 L 450.917 982.927 L 451.021 941.952 L 409.858 942.189 C 410.18 929.076 409.899 914.957 409.864 901.765 z"/>
<path transform="translate(0,0)" fill="rgb(131,177,168)" d="M 491.222 1024 L 532.732 1024 C 532.582 1037.63 532.552 1051.27 532.643 1064.9 C 559.691 1064.92 587.195 1064.68 614.203 1064.99 L 614.246 1146.95 L 614.297 1474.48 C 606.577 1475.48 594.689 1475.04 586.694 1475.08 C 568.713 1475.15 550.623 1474.6 532.63 1474.92 L 532.363 1474.46 C 524.033 1473.72 499.437 1474.07 491.03 1474.73 L 491.072 1434.02 C 491.951 1421.93 491.244 1405.36 491.709 1392.33 C 490.858 1387.12 491.093 1367.22 491.068 1361.01 L 491.201 1289.55 L 491.222 1024 z"/>
<path transform="translate(0,0)" fill="rgb(81,131,126)" d="M 491.222 1024 L 532.732 1024 C 532.582 1037.63 532.552 1051.27 532.643 1064.9 C 559.691 1064.92 587.195 1064.68 614.203 1064.99 L 614.246 1146.95 L 573.249 1147 C 573.651 1133.35 573.616 1119.69 573.143 1106.04 C 546.351 1106.03 518.952 1106.34 492.209 1106.05 L 492.107 1303.86 L 492.156 1358.69 C 492.204 1367.89 492.715 1383.82 491.709 1392.33 C 490.858 1387.12 491.093 1367.22 491.068 1361.01 L 491.201 1289.55 L 491.222 1024 z"/>
<path transform="translate(0,0)" fill="rgb(81,131,126)" d="M 491.709 1392.33 C 505.349 1392.72 518.997 1392.71 532.637 1392.32 L 532.883 1433.31 C 545.625 1433.39 560.79 1433.81 573.288 1433.16 C 573.117 1446.79 573.029 1460.41 573.025 1474.04 C 581.369 1473.97 606.833 1473.26 614.297 1474.48 C 606.577 1475.48 594.689 1475.04 586.694 1475.08 C 568.713 1475.15 550.623 1474.6 532.63 1474.92 L 532.363 1474.46 C 524.033 1473.72 499.437 1474.07 491.03 1474.73 L 491.072 1434.02 C 491.951 1421.93 491.244 1405.36 491.709 1392.33 z"/>
<path transform="translate(0,0)" fill="rgb(21,32,48)" d="M 491.072 1434.02 L 532.882 1433.52 C 532.888 1442.92 533.376 1466.23 532.363 1474.46 C 524.033 1473.72 499.437 1474.07 491.03 1474.73 L 491.072 1434.02 z"/>
<path transform="translate(0,0)" fill="rgb(230,189,87)" d="M 654.951 1188.03 L 737.358 1187.9 L 737.074 1229.07 L 778.145 1228.9 C 776.688 1336.75 778.104 1447.88 778.136 1556.05 L 696.519 1556.17 C 696.38 1542.67 696.311 1529.16 696.31 1515.65 L 654.981 1515.46 L 654.951 1188.03 z"/>
<path transform="translate(0,0)" fill="rgb(131,177,168)" d="M 819.11 942.165 L 819.172 983.113 C 845.876 983.075 874.563 983.583 901.093 982.945 L 983.019 982.933 C 983.021 996.255 982.716 1010.78 983.037 1023.99 L 983.014 1187.99 L 942.025 1187.97 L 930.065 1187.83 C 908.995 1188.77 881.971 1187.89 860.158 1187.89 C 859.912 1174.44 860.136 1160.4 860.165 1146.9 L 819.224 1146.91 L 778.051 1147 L 778.094 1105.08 L 778.166 942.179 L 819.11 942.165 z"/>
<path transform="translate(0,0)" fill="rgb(21,32,48)" d="M 901.093 982.945 L 983.019 982.933 C 983.021 996.255 982.716 1010.78 983.037 1023.99 L 901.007 1024.04 L 901.093 982.945 z"/>
<path transform="translate(0,0)" fill="rgb(81,131,126)" d="M 860.165 1146.9 L 901.037 1146.96 L 901.014 1187.24 C 910.004 1187.28 921.286 1187.03 930.065 1187.83 C 908.995 1188.77 881.971 1187.89 860.158 1187.89 C 859.912 1174.44 860.136 1160.4 860.165 1146.9 z"/>
<path transform="translate(0,0)" fill="rgb(81,131,126)" d="M 778.094 1105.08 C 782.186 1106.89 812.497 1106.02 819.031 1105.94 L 819.224 1146.91 L 778.051 1147 L 778.094 1105.08 z"/>
<path transform="translate(0,0)" fill="rgb(230,189,87)" d="M 614.736 839.812 C 614.936 846.67 614.955 853.531 614.794 860.389 C 627.941 860.253 641.946 859.894 655.01 860.216 L 655.068 901.428 C 682.449 901.08 709.833 900.969 737.216 901.094 L 778.203 901.082 L 819.097 901.143 L 819.11 942.165 L 778.166 942.179 L 778.094 1105.08 L 778.051 1147 L 696.057 1147.06 C 695.933 1133.37 695.942 1119.67 696.083 1105.97 L 696.183 1065.01 C 668.954 1065.06 641.725 1064.97 614.498 1064.74 C 612.294 1013.69 615.332 960.443 614.17 909.161 C 613.666 886.951 613.583 861.837 614.736 839.812 z"/>
<path transform="translate(0,0)" fill="rgb(21,32,48)" d="M 778.203 901.082 L 819.097 901.143 L 819.11 942.165 L 778.166 942.179 L 778.094 1105.08 L 778.051 1147 L 696.057 1147.06 C 695.933 1133.37 695.942 1119.67 696.083 1105.97 L 737.125 1106.01 L 737.216 901.094 L 778.203 901.082 z"/>
<path transform="translate(0,0)" fill="rgb(178,143,55)" d="M 696.083 1105.97 C 695.942 1119.67 695.933 1133.37 696.057 1147.06 L 778.051 1147 L 778.145 1228.9 L 737.074 1229.07 L 737.358 1187.9 L 654.951 1188.03 L 654.966 1105.97 L 696.083 1105.97 z"/>
<path transform="translate(0,0)" fill="rgb(81,131,126)" d="M 532.782 982.924 L 573.161 983.154 L 573.335 1023.99 L 532.732 1024 C 533.12 1010.79 532.811 996.237 532.782 982.924 z"/>
<path transform="translate(0,0)" fill="rgb(21,32,48)" d="M 614.84 368.445 C 627.471 366.9 638.686 367.328 651.361 367.306 L 704.396 367.113 C 728.944 366.893 753.494 366.842 778.042 366.961 C 789.293 367.018 805.847 366.549 816.63 367.916 C 820.299 372.126 819.037 401.847 819.022 409.243 C 778.008 409.705 736.991 409.823 695.975 409.597 C 669.1 409.569 641.461 410.184 614.659 409.616 C 614.394 406.837 612.628 403.624 612.794 399.556 C 613.21 389.35 614.147 378.645 614.84 368.445 z"/>
<path transform="translate(0,0)" fill="url(#Gradient1)" d="M 481.957 1477.11 C 483.664 1478.48 483.101 1477.84 483.992 1479.95 L 481.771 1484.54 C 479.883 1483.06 480.436 1483.73 479.457 1481.54 L 481.957 1477.11 z"/>
</svg>