<svg version="1.1" xmlns="http://www.w3.org/2000/svg" style="display: block;" viewBox="0 0 2048 2048" width="1024" height="1024" preserveAspectRatio="none">
<path transform="translate(0,0)" fill="rgb(27,31,60)" d="M 738.052 307.237 C 773.667 309.228 823.227 307.635 859.817 307.433 L 859.857 328.251 L 1289.85 327.971 C 1288.8 334.495 1289.16 342.232 1289.23 348.953 C 1303.25 347.597 1327.1 348.206 1341.76 348.201 L 1433.1 348.187 L 1432.56 697.291 C 1446.08 697.429 1460.52 697.862 1473.95 696.975 C 1473.9 710.571 1473.66 724.566 1473.8 738.125 C 1485.97 736.947 1502.57 737.534 1515.14 737.664 L 1515.19 941.736 L 1474.51 941.791 C 1475.25 982.306 1472.82 1026.1 1474.95 1066.14 C 1487.22 1064.68 1502.69 1066.24 1515.84 1065.65 C 1515.89 1128.1 1514.9 1190.46 1515.07 1252.9 C 1515.08 1258.6 1515.04 1264.34 1515.22 1270.04 L 1555.61 1270.1 C 1555.53 1282.87 1555.05 1298.73 1555.97 1311.2 C 1569.63 1310.81 1583.3 1310.77 1596.96 1311.11 C 1594.8 1372.52 1596.9 1434.65 1596.24 1496.14 C 1596.18 1501.58 1596.24 1508.92 1596.8 1514.23 C 1583.3 1514.16 1569.51 1513.85 1556.06 1514.82 C 1555.85 1528.47 1555.43 1542.34 1556.04 1555.97 L 1514.19 1555.97 C 1514.2 1569.6 1514.33 1583.43 1514.19 1597.04 L 1474.48 1597.13 C 1474.22 1610.29 1473.86 1624.16 1474.31 1637.3 C 1463.61 1637.39 1441.93 1638.2 1432.11 1637.36 L 1432.44 1678.77 C 1421.07 1677.87 1403.84 1678.72 1391.94 1679.01 C 1391.98 1692.24 1391.85 1705.84 1392.09 1719.04 C 1325.3 1721.02 1255.75 1718.15 1188.81 1719.34 C 1165.25 1719.76 1129.19 1717.98 1106.62 1719.7 C 1106 1706.02 1106.13 1692.51 1106.16 1678.83 C 1092.44 1677.97 1078.68 1677.98 1064.96 1678.86 C 1065.87 1665.1 1065.56 1651.27 1065.93 1637.48 C 1054.69 1637.41 1035.24 1636.83 1024.67 1637.65 C 1024.08 1623.74 1024.37 1610.4 1024.14 1596.58 C 1000.96 1595.57 975.327 1596.14 951.972 1596.07 C 938.437 1596.02 914.132 1595.45 901.384 1596.75 C 902.067 1583.19 901.82 1569.38 901.767 1555.78 C 874.508 1555.45 846.7 1556.14 819.295 1556.05 C 820.127 1542.58 820.017 1527.55 819.564 1514 L 778.226 1514.03 C 778.849 1500.53 778.17 1487.59 778.548 1474.41 C 766.441 1473.95 750.282 1473.92 738.086 1474.39 C 738.196 1460.65 738.098 1446.91 737.791 1433.17 C 726.011 1434.37 710.298 1432.85 696.871 1433.77 C 696.761 1420.09 696.893 1405.01 696.35 1391.41 C 682.565 1392.08 668.802 1392 655 1392.04 L 655.27 1339.5 C 655.351 1330.47 655.99 1318.75 655.307 1310 C 641.803 1310.13 628.298 1310.12 614.794 1309.96 C 613.765 1288.18 614.387 1263.55 614.264 1241.52 C 614.174 1225.38 613.575 1202.61 615.018 1187.16 C 600.852 1187.67 587.475 1187.35 573.301 1187.05 C 574.783 1151.2 574.899 1101 573.778 1064.97 L 573.048 1063.91 C 560.205 1063.8 545.741 1063.34 533.031 1063.62 C 533.186 1036.52 533.205 1009.41 533.086 982.311 C 499.583 982.313 463.43 983.007 430.188 982.268 C 431.102 929.358 430.419 873.551 430.426 820.5 L 430.455 430.531 L 450.528 430.863 L 450.334 409.682 C 471.047 410.371 491.657 409.582 512.196 410.144 C 512.156 403.475 512.023 396.594 512.093 389.946 C 532.912 389.863 553.732 389.884 574.551 390.011 C 574.402 382.955 574.084 375.253 574.149 368.254 C 593.905 368.503 615.544 367.711 635.028 368.982 L 635.007 348.303 C 654.869 348.222 676.764 347.696 696.461 348.51 C 696.258 341.65 696.204 334.787 696.299 327.925 C 710.215 327.724 724.133 327.829 738.044 328.242 L 738.052 307.237 z"/>
<path transform="translate(0,0)" fill="rgb(103,139,139)" d="M 573.4 1003.78 C 594.262 1003.78 637.052 1001.56 655.446 1003.48 C 644.579 1004.59 625.743 1004.06 614.245 1004.06 C 614.276 1009.59 614.04 1018.77 614.448 1024 C 614.726 1037.66 614.725 1051.32 614.446 1064.97 L 573.778 1064.97 L 573.048 1063.91 C 573.845 1044.87 573.425 1023.04 573.4 1003.78 z"/>
<path transform="translate(0,0)" fill="rgb(233,227,198)" d="M 614.245 1004.06 C 625.743 1004.06 644.579 1004.59 655.446 1003.48 L 655.304 1023.88 L 614.448 1024 C 614.04 1018.77 614.276 1009.59 614.245 1004.06 z"/>
<path transform="translate(0,0)" fill="rgb(233,227,198)" d="M 778.631 901.837 C 786.467 900.53 802.373 900.893 810.763 900.914 L 859.977 901.116 L 860.2 941.942 L 860.043 1024.21 C 860.063 1037.59 860.321 1051.68 860.093 1065 L 819.025 1065.04 L 818.962 1105.92 L 778.69 1106 C 778.844 1117.62 779.358 1131.8 778.43 1143.23 L 778.975 1145.85 C 783.384 1148.11 811.992 1146.9 818.973 1146.99 C 819.094 1165.45 819.048 1183.9 818.834 1202.35 L 818.968 1228.97 L 860.144 1228.99 C 860.303 1215.34 860.382 1201.68 860.378 1188.02 L 900.899 1187.94 L 901.032 1228.97 L 942.485 1228.97 C 942.127 1215.32 941.942 1201.67 941.93 1188.01 L 983.033 1187.94 L 982.957 1105.98 L 1023.78 1105.98 C 1024.07 1092.5 1023.94 1078.51 1024.01 1064.99 L 1106.02 1064.96 L 1147 1064.96 L 1146.99 1269.99 C 1158.85 1269.99 1176.66 1270.55 1188.05 1269.79 C 1201.58 1269.37 1215.27 1269.65 1228.81 1269.77 C 1242.48 1269.89 1256.15 1269.89 1269.82 1269.79 L 1270.05 1310.63 C 1283.41 1310.5 1296.84 1310.24 1310.18 1310.63 C 1310.49 1324.41 1310.71 1338.2 1310.86 1351.98 L 1363.47 1352.12 C 1370.53 1352.13 1386.24 1352.43 1392.96 1351.62 L 1475 1351.5 L 1475 1310.81 L 1515.37 1310.84 C 1515.05 1324.38 1514.93 1337.92 1515 1351.47 C 1528.1 1351.49 1544.06 1351.09 1556.94 1351.69 L 1557.02 1433.49 L 1515.24 1433.58 L 1515.02 1475.02 L 1475.09 1474.99 L 1475.06 1515.64 C 1461.76 1515.59 1447.14 1515.23 1433.94 1515.56 C 1433.62 1529.04 1433.45 1542.52 1433.45 1556.01 L 1393.01 1556.1 L 1392.94 1597.01 C 1380.89 1597.02 1363.39 1596.49 1351.78 1597.2 C 1345.26 1598.41 1329.17 1598.15 1321.99 1598.16 L 1270.05 1598.05 L 1269.94 1557.31 C 1274.94 1557.32 1294.85 1557.99 1297.76 1556.36 L 1310.99 1556.22 L 1310.98 1514.98 L 1311 1474.99 L 1269.73 1474.95 C 1268.96 1486.5 1269.48 1503.48 1269.53 1515.42 C 1242.53 1515.76 1215.09 1515.54 1188.06 1515.57 L 1188.03 1556.55 C 1122.38 1554.54 1049.23 1555.98 982.993 1556 L 982.984 1515.58 C 956.552 1514.98 927.663 1515.62 901.038 1515.68 L 901.067 1475.01 C 873.707 1475.13 846.346 1475.04 818.987 1474.72 L 818.972 1433.55 L 777.95 1433.72 C 777.82 1420.25 778.208 1406.16 778.391 1392.64 C 764.597 1392.34 750.801 1392.12 737.004 1391.98 C 737.035 1365.78 736.437 1336.21 737.455 1310.28 L 696.451 1310.39 L 696.611 1270.11 C 696.535 1257.54 696.417 1245.38 696.926 1232.8 L 696.238 1230.63 C 692.589 1227.58 662.341 1228.91 655.031 1228.99 L 654.957 1105.94 C 668.88 1106.07 682.803 1106.03 696.724 1105.82 C 697.306 1078.94 696.978 1050.98 696.996 1024.01 L 737.884 1023.81 C 736.642 1016.56 737.006 999.201 737.036 991.364 L 737.124 942.118 C 747.165 942.377 770.108 943.541 778.944 941.072 C 779.125 928.252 778.377 915.279 778.631 901.837 z"/>
<path transform="translate(0,0)" fill="rgb(254,254,254)" d="M 778.631 901.837 C 786.467 900.53 802.373 900.893 810.763 900.914 L 859.977 901.116 L 860.2 941.942 L 860.043 1024.21 C 860.063 1037.59 860.321 1051.68 860.093 1065 L 819.025 1065.04 L 818.962 1105.92 L 778.69 1106 C 778.844 1117.62 779.358 1131.8 778.43 1143.23 L 778.975 1145.85 C 783.384 1148.11 811.992 1146.9 818.973 1146.99 C 819.094 1165.45 819.048 1183.9 818.834 1202.35 L 818.968 1228.97 L 860.144 1228.99 C 860.303 1215.34 860.382 1201.68 860.378 1188.02 L 900.899 1187.94 L 901.032 1228.97 L 900.986 1310.92 C 901.507 1323.34 901.038 1339.23 901.036 1351.92 C 914.67 1352.03 928.304 1351.83 941.929 1351.33 L 941.972 1311.05 C 969.361 1310.77 996.513 1310.87 1023.95 1310.35 L 1023.98 1270.22 L 1105.47 1270.04 C 1105.45 1283.47 1105.84 1297.38 1106.03 1310.84 C 1133.43 1311.05 1160.83 1311.01 1188.23 1310.71 C 1187.77 1323.66 1188.02 1338.09 1187.99 1351.14 C 1213.12 1352.6 1244.46 1351.88 1270.14 1352.06 C 1269.92 1379.3 1269.88 1406.55 1270 1433.8 C 1256.4 1434.05 1242.6 1434.03 1228.98 1434.13 C 1229.15 1447.62 1229.08 1461.12 1228.75 1474.62 C 1165.73 1476.23 1101.75 1474.09 1038.64 1475 C 1007.02 1475.46 974.364 1475.38 942.746 1474.75 C 941.617 1462.42 941.962 1446.44 941.935 1433.77 C 914.653 1434.04 887.369 1434.07 860.087 1433.86 L 859.93 1392.67 C 832.666 1393.01 805.399 1392.86 778.14 1392.22 C 778.169 1378.82 778.091 1365.43 777.906 1352.03 L 737.964 1352.03 C 738.1 1343.58 738.938 1317.26 737.455 1310.28 L 696.451 1310.39 L 696.611 1270.11 C 696.535 1257.54 696.417 1245.38 696.926 1232.8 L 696.238 1230.63 C 692.589 1227.58 662.341 1228.91 655.031 1228.99 L 654.957 1105.94 C 668.88 1106.07 682.803 1106.03 696.724 1105.82 C 697.306 1078.94 696.978 1050.98 696.996 1024.01 L 737.884 1023.81 C 736.642 1016.56 737.006 999.201 737.036 991.364 L 737.124 942.118 C 747.165 942.377 770.108 943.541 778.944 941.072 C 779.125 928.252 778.377 915.279 778.631 901.837 z"/>
<path transform="translate(0,0)" fill="rgb(233,227,198)" d="M 654.957 1105.94 C 668.88 1106.07 682.803 1106.03 696.724 1105.82 C 694.728 1140.77 697.22 1177.44 696.39 1212.51 C 696.296 1216.5 697.387 1230.16 696.926 1232.8 L 696.238 1230.63 C 692.589 1227.58 662.341 1228.91 655.031 1228.99 L 654.957 1105.94 z"/>
<path transform="translate(0,0)" fill="rgb(27,31,60)" d="M 860.378 1188.02 L 900.899 1187.94 L 901.032 1228.97 L 900.986 1310.92 L 860.078 1310.94 L 860.144 1228.99 C 860.303 1215.34 860.382 1201.68 860.378 1188.02 z"/>
<path transform="translate(0,0)" fill="rgb(103,139,139)" d="M 860.378 1188.02 L 900.899 1187.94 L 901.032 1228.97 L 860.144 1228.99 C 860.303 1215.34 860.382 1201.68 860.378 1188.02 z"/>
<path transform="translate(0,0)" fill="rgb(233,227,198)" d="M 778.944 941.072 C 778.403 955.016 778.13 968.97 778.123 982.925 C 767.307 982.96 748.423 983.515 738.085 982.132 C 738.149 991.453 738.864 1015.72 737.884 1023.81 C 736.642 1016.56 737.006 999.201 737.036 991.364 L 737.124 942.118 C 747.165 942.377 770.108 943.541 778.944 941.072 z"/>
<path transform="translate(0,0)" fill="rgb(233,227,198)" d="M 778.631 901.837 C 786.467 900.53 802.373 900.893 810.763 900.914 L 859.977 901.116 L 860.2 941.942 L 819.675 941.944 L 819.199 901.891 C 808.247 902.18 789.072 902.574 778.631 901.837 z"/>
<path transform="translate(0,0)" fill="rgb(233,227,198)" d="M 777.911 1188.01 C 777.897 1182.64 777.466 1145.4 778.43 1143.23 L 778.975 1145.85 C 783.384 1148.11 811.992 1146.9 818.973 1146.99 C 819.094 1165.45 819.048 1183.9 818.834 1202.35 C 818.314 1198.58 818.333 1191.97 818.223 1187.97 L 777.911 1188.01 z"/>
<path transform="translate(0,0)" fill="rgb(233,227,198)" d="M 819.153 1024.01 L 860.043 1024.21 C 860.063 1037.59 860.321 1051.68 860.093 1065 L 819.025 1065.04 L 819.153 1024.01 z"/>
<path transform="translate(0,0)" fill="rgb(233,227,198)" d="M 696.611 1270.11 L 736.98 1270.13 C 737.043 1280.54 736.565 1300.69 737.455 1310.28 L 696.451 1310.39 L 696.611 1270.11 z"/>
<path transform="translate(0,0)" fill="rgb(254,254,254)" d="M 1474.94 1351.52 C 1486.03 1351.82 1504.21 1352.41 1514.96 1351 C 1514.94 1378.02 1514.48 1406.7 1515.24 1433.58 L 1515.02 1475.02 L 1475.09 1474.99 L 1475.06 1515.64 C 1461.76 1515.59 1447.14 1515.23 1433.94 1515.56 C 1433.62 1529.04 1433.45 1542.52 1433.45 1556.01 L 1393.01 1556.1 L 1392.94 1597.01 C 1380.89 1597.02 1363.39 1596.49 1351.78 1597.2 C 1345.26 1598.41 1329.17 1598.15 1321.99 1598.16 L 1270.05 1598.05 L 1269.94 1557.31 C 1274.94 1557.32 1294.85 1557.99 1297.76 1556.36 L 1310.99 1556.22 L 1310.98 1514.98 C 1320.22 1516.69 1340.91 1515.91 1350.93 1515.74 C 1351.2 1502.11 1351.57 1488.48 1352.03 1474.86 L 1392.77 1474.29 L 1392.78 1434.05 C 1406.41 1434 1419.46 1433.97 1433.07 1433.26 C 1433.94 1419.7 1433.93 1406.5 1434.02 1392.92 C 1447.14 1391.81 1460.9 1392.21 1474.11 1392.29 C 1474.02 1378.69 1474.53 1365.13 1474.94 1351.52 z"/>
<path transform="translate(0,0)" fill="rgb(27,31,60)" d="M 1188.05 1269.79 C 1201.58 1269.37 1215.27 1269.65 1228.81 1269.77 C 1229.46 1281.7 1228.95 1298.57 1228.97 1310.88 L 1188.22 1310.88 L 1188.05 1269.79 z"/>
<path transform="translate(0,0)" fill="rgb(132,89,63)" d="M 839.953 450.964 C 853.086 450.648 867.044 450.883 880.244 450.899 L 880.183 457.733 C 880.018 462.222 879.93 466.713 879.922 471.205 L 860.021 471.059 L 859.994 492.067 L 861.099 491.752 C 867.385 490.446 893.843 491.513 901.484 491.734 C 935.428 491.404 969.376 491.422 1003.32 491.788 L 1023.61 491.8 C 1027.07 491.208 1039.84 491.202 1044.03 491.118 L 1044.04 470.976 L 1064.22 470.981 L 1085.27 470.881 L 1085.83 471.126 C 1085.37 476.895 1084.89 486.362 1086.49 491.865 L 1085.98 492.11 C 1085.83 498.545 1085.6 504.891 1085.9 511.322 L 1086.14 511.923 L 1105.89 512.013 C 1106.51 580.176 1106.56 648.343 1106.04 716.507 L 1105.94 737.969 L 1126.03 737.824 L 1126.07 757.947 L 1146.93 757.969 L 1167.61 758.019 C 1167.63 764.08 1167.43 772.117 1167.81 778.005 L 1187.89 778.021 C 1194.32 777.956 1201.54 777.717 1207.9 777.856 L 1228.2 778.011 C 1228.27 790.906 1228.72 806.326 1228.21 819.012 L 1228.27 859.992 L 1208.02 860.351 L 1208.09 941.837 L 1187.97 942.072 L 1188.06 962.608 L 1126.23 963.064 L 1126.03 983.146 C 1119.77 983.18 1112.24 983.407 1106.11 983.12 L 1086.01 983.141 L 1064.84 983.89 C 1064.7 989.089 1064.72 997.276 1064.21 1002.26 L 1063.69 1003.18 C 1060.34 1004.24 1048.8 1003.9 1044.7 1003.9 C 1044.76 997.225 1044.65 990.545 1044.38 983.87 C 1029.55 983.298 1009.85 983.951 994.619 983.961 L 900.975 983.602 L 900.994 962.883 L 900.918 942.124 L 900.946 921.979 L 900.992 902.263 C 893.997 902.301 886.914 902.551 879.986 901.684 L 880.049 859.965 L 860.546 860.088 L 839.948 860.025 L 819.869 860.052 L 798.268 860.121 L 778.137 860.046 L 757.149 860.029 L 737.909 860.178 C 738.016 838.182 736.456 661.784 738.991 655.731 C 737.113 651.896 737.87 639.673 737.952 634.704 C 743.105 634.706 752.57 634.444 757.366 634.895 C 757.938 630.887 757.904 618.916 758.003 614.296 C 757.927 600.767 757.925 587.237 757.998 573.707 C 758.459 539.861 757.899 504.973 757.999 470.961 L 777.943 471.174 L 778.931 470.91 L 819.768 470.956 L 819.877 491.842 C 826.441 491.462 832.375 491.128 838.961 491.134 L 839.965 491.003 L 839.953 450.964 z"/>
<path transform="translate(0,0)" fill="rgb(200,162,114)" d="M 839.953 450.964 C 853.086 450.648 867.044 450.883 880.244 450.899 L 880.183 457.733 C 880.018 462.222 879.93 466.713 879.922 471.205 L 860.021 471.059 L 859.994 492.067 L 861.099 491.752 C 867.385 490.446 893.843 491.513 901.484 491.734 C 935.428 491.404 969.376 491.422 1003.32 491.788 C 1004.13 549.614 1004.29 607.447 1003.81 665.277 L 1003.72 711.861 C 1003.71 718.42 1003.39 731.895 1004.12 738.025 L 880.041 738 L 880.049 859.965 L 860.546 860.088 L 839.948 860.025 L 819.869 860.052 L 798.268 860.121 L 778.137 860.046 L 757.149 860.029 L 737.909 860.178 C 738.016 838.182 736.456 661.784 738.991 655.731 C 737.113 651.896 737.87 639.673 737.952 634.704 C 743.105 634.706 752.57 634.444 757.366 634.895 C 757.938 630.887 757.904 618.916 758.003 614.296 C 757.927 600.767 757.925 587.237 757.998 573.707 C 758.459 539.861 757.899 504.973 757.999 470.961 L 777.943 471.174 L 778.931 470.91 L 819.768 470.956 L 819.877 491.842 C 826.441 491.462 832.375 491.128 838.961 491.134 L 839.965 491.003 L 839.953 450.964 z"/>
<path transform="translate(0,0)" fill="rgb(172,129,86)" d="M 758.003 614.296 L 777.963 614.164 L 778.034 634.881 C 782.887 634.873 794.565 635.382 798.514 633.714 L 799.015 634.816 L 819.297 634.762 L 819.556 650.136 L 819.802 655.761 L 839.892 655.763 L 839.854 675.921 C 840.008 736.503 838.863 799.744 839.948 860.025 L 819.869 860.052 L 798.268 860.121 L 778.137 860.046 L 757.149 860.029 L 737.909 860.178 C 738.016 838.182 736.456 661.784 738.991 655.731 C 737.113 651.896 737.87 639.673 737.952 634.704 C 743.105 634.706 752.57 634.444 757.366 634.895 C 757.938 630.887 757.904 618.916 758.003 614.296 z"/>
<path transform="translate(0,0)" fill="rgb(200,162,114)" d="M 819.802 655.761 L 839.892 655.763 L 839.854 675.921 C 840.008 736.503 838.863 799.744 839.948 860.025 L 819.869 860.052 C 818.91 833.111 819.557 804.025 819.51 776.848 C 819.193 736.486 819.29 696.121 819.802 655.761 z"/>
<path transform="translate(0,0)" fill="rgb(200,162,114)" d="M 777.805 656.262 L 798.542 656.229 C 797.44 685.948 798.059 718.451 798.063 748.366 C 797.851 785.618 797.919 822.87 798.268 860.121 L 778.137 860.046 C 778.168 792.434 778.707 723.762 777.805 656.262 z"/>
<path transform="translate(0,0)" fill="rgb(200,162,114)" d="M 738.991 655.731 L 739.925 655.866 C 746.429 656.345 751.464 656.34 757.994 656.28 L 757.149 860.029 L 737.909 860.178 C 738.016 838.182 736.456 661.784 738.991 655.731 z"/>
<path transform="translate(0,0)" fill="rgb(27,31,60)" d="M 798.514 633.714 L 799.015 634.816 L 798.747 655.272 L 777.951 655.373 L 778.034 634.881 C 782.887 634.873 794.565 635.382 798.514 633.714 z"/>
<path transform="translate(0,0)" fill="rgb(27,31,60)" d="M 758.003 614.296 L 777.963 614.164 L 778.034 634.881 C 771.342 634.858 764.649 634.948 757.96 635.152 L 757.366 634.895 C 757.938 630.887 757.904 618.916 758.003 614.296 z"/>
<path transform="translate(0,0)" fill="rgb(27,31,60)" d="M 737.952 634.704 C 743.105 634.706 752.57 634.444 757.366 634.895 L 757.96 635.152 L 757.81 655.353 C 753.219 655.368 743.994 655.171 739.925 655.866 L 738.991 655.731 C 737.113 651.896 737.87 639.673 737.952 634.704 z"/>
<path transform="translate(0,0)" fill="rgb(103,139,139)" d="M 839.953 450.964 C 853.086 450.648 867.044 450.883 880.244 450.899 L 880.183 457.733 C 880.018 462.222 879.93 466.713 879.922 471.205 L 860.021 471.059 L 859.994 492.067 L 860.039 655.747 L 839.892 655.763 L 819.802 655.761 L 819.556 650.136 L 819.297 634.762 L 799.015 634.816 L 798.514 633.714 C 794.565 635.382 782.887 634.873 778.034 634.881 L 777.963 614.164 L 758.003 614.296 C 757.927 600.767 757.925 587.237 757.998 573.707 C 758.459 539.861 757.899 504.973 757.999 470.961 L 777.943 471.174 L 778.931 470.91 L 819.768 470.956 L 819.877 491.842 C 826.441 491.462 832.375 491.128 838.961 491.134 L 839.965 491.003 L 839.953 450.964 z"/>
<path transform="translate(0,0)" fill="rgb(27,31,60)" d="M 839.953 450.964 C 853.086 450.648 867.044 450.883 880.244 450.899 L 880.183 457.733 C 880.018 462.222 879.93 466.713 879.922 471.205 L 860.021 471.059 L 859.994 492.067 L 860.039 655.747 L 839.892 655.763 L 819.802 655.761 L 819.556 650.136 L 819.566 634.828 L 839.875 634.87 L 839.846 543.04 C 839.46 539.678 839.457 535.414 839.347 531.967 L 819.365 532.014 C 819.831 525.867 819.751 518.268 819.839 512.001 C 819.618 505.756 819.85 498.192 819.877 491.842 C 826.441 491.462 832.375 491.128 838.961 491.134 L 839.965 491.003 L 839.953 450.964 z"/>
<path transform="translate(0,0)" fill="rgb(61,97,110)" d="M 819.877 491.842 C 826.441 491.462 832.375 491.128 838.961 491.134 L 839.965 491.003 C 840.005 505.292 840.84 529.553 839.846 543.04 C 839.46 539.678 839.457 535.414 839.347 531.967 L 819.365 532.014 C 819.831 525.867 819.751 518.268 819.839 512.001 C 819.618 505.756 819.85 498.192 819.877 491.842 z"/>
<path transform="translate(0,0)" fill="rgb(103,139,139)" d="M 819.877 491.842 C 826.441 491.462 832.375 491.128 838.961 491.134 L 839.234 511.898 L 819.839 512.001 C 819.618 505.756 819.85 498.192 819.877 491.842 z"/>
<path transform="translate(0,0)" fill="rgb(61,97,110)" d="M 778.931 470.91 L 819.768 470.956 L 819.877 491.842 C 819.85 498.192 819.618 505.756 819.839 512.001 C 807.091 511.524 791.031 512.035 777.968 512.027 L 777.943 471.174 L 778.931 470.91 z"/>
<path transform="translate(0,0)" fill="rgb(61,97,110)" d="M 757.998 573.707 L 778.116 573.595 C 778.036 586.985 777.779 600.813 777.963 614.164 L 758.003 614.296 C 757.927 600.767 757.925 587.237 757.998 573.707 z"/>
<path transform="translate(0,0)" fill="rgb(27,31,60)" d="M 798.584 614.293 L 819.497 614.284 L 819.297 634.762 L 799.015 634.816 L 798.514 633.714 C 798.42 627.078 798.382 620.926 798.584 614.293 z"/>
<path transform="translate(0,0)" fill="rgb(172,129,86)" d="M 861.099 491.752 C 867.385 490.446 893.843 491.513 901.484 491.734 C 900.399 509.736 901.677 533.717 901.552 552.389 L 901.588 737.189 C 894.661 736.944 887.051 737.066 880.064 737.041 L 880.12 492.149 C 873.777 492.23 867.433 492.098 861.099 491.752 z"/>
<path transform="translate(0,0)" fill="rgb(172,129,86)" d="M 839.854 675.921 L 860.107 676.026 L 860.12 795.687 C 860.182 816.214 859.714 839.865 860.546 860.088 L 839.948 860.025 C 838.863 799.744 840.008 736.503 839.854 675.921 z"/>
<path transform="translate(0,0)" fill="rgb(132,89,63)" d="M 860.039 655.747 L 860.107 676.026 L 839.854 675.921 L 839.892 655.763 L 860.039 655.747 z"/>
<path transform="translate(0,0)" fill="rgb(172,129,86)" d="M 962.047 511.931 L 983.531 512.005 L 983.962 737.428 C 976.836 737.363 969.71 737.223 962.587 737.008 C 963.255 706.991 962.259 673.897 962.22 643.576 C 962.586 599.694 962.529 555.811 962.047 511.931 z"/>
<path transform="translate(0,0)" fill="rgb(172,129,86)" d="M 921.747 511.859 L 942.108 511.858 L 942.058 657.942 C 942.074 682.234 942.926 713.153 941.585 736.871 L 921.797 736.877 C 920.27 709.334 921.242 671.769 921.417 643.562 L 921.747 511.859 z"/>
<path transform="translate(0,0)" fill="rgb(233,227,198)" d="M 1008.85 737.874 L 1024.01 738.026 L 1023.91 941.988 C 1024.02 955.368 1023.91 969.697 1024.5 982.981 L 1044.01 982.991 L 1044.38 983.87 C 1029.55 983.298 1009.85 983.951 994.619 983.961 L 900.975 983.602 L 900.994 962.883 L 900.918 942.124 L 900.946 921.979 L 900.992 902.263 C 893.997 902.301 886.914 902.551 879.986 901.684 L 880.049 859.965 L 880.041 738 L 1004.12 738.025 L 1008.85 737.874 z"/>
<path transform="translate(0,0)" fill="rgb(172,129,86)" d="M 984.707 942.534 L 987.53 941.294 L 988.337 938.118 L 989.671 941.559 L 990.549 941.797 L 1004 941.958 L 1023.91 941.988 C 1024.02 955.368 1023.91 969.697 1024.5 982.981 L 1044.01 982.991 L 1044.38 983.87 C 1029.55 983.298 1009.85 983.951 994.619 983.961 L 900.975 983.602 L 900.994 962.883 L 900.918 942.124 L 921.676 941.943 L 942.443 941.945 L 962.64 942.007 C 968.193 942.004 979.749 941.699 984.707 942.534 z"/>
<path transform="translate(0,0)" fill="rgb(200,162,114)" d="M 984.707 942.534 L 987.53 941.294 L 988.337 938.118 L 989.671 941.559 L 990.549 941.797 L 1004 941.958 L 1023.91 941.988 C 1024.02 955.368 1023.91 969.697 1024.5 982.981 L 1003.88 983.067 L 983.069 983.08 C 983.048 973.899 982.827 950.782 984.707 942.534 z"/>
<path transform="translate(0,0)" fill="rgb(172,129,86)" d="M 1004 941.958 L 1023.91 941.988 C 1024.02 955.368 1023.91 969.697 1024.5 982.981 L 1003.88 983.067 C 1003.44 970.147 1003.55 954.834 1004 941.958 z"/>
<path transform="translate(0,0)" fill="rgb(172,129,86)" d="M 962.64 942.007 C 968.193 942.004 979.749 941.699 984.707 942.534 C 982.827 950.782 983.048 973.899 983.069 983.08 L 962.509 982.971 C 963.047 970.767 962.557 954.603 962.64 942.007 z"/>
<path transform="translate(0,0)" fill="rgb(200,162,114)" d="M 942.443 941.945 L 962.64 942.007 C 962.557 954.603 963.047 970.767 962.509 982.971 L 942.055 982.935 C 941.953 969.271 942.083 955.605 942.443 941.945 z"/>
<path transform="translate(0,0)" fill="rgb(95,62,47)" d="M 900.994 962.883 L 903.603 962.681 C 909.646 962.772 915.69 962.775 921.732 962.688 L 921.764 983.067 L 942.055 982.935 L 962.509 982.971 L 983.069 983.08 L 1003.88 983.067 L 1024.5 982.981 L 1044.01 982.991 L 1044.38 983.87 C 1029.55 983.298 1009.85 983.951 994.619 983.961 L 900.975 983.602 L 900.994 962.883 z"/>
<path transform="translate(0,0)" fill="rgb(200,162,114)" d="M 900.918 942.124 L 921.676 941.943 L 921.795 961.715 C 917.686 961.699 906.903 961.178 903.603 962.681 L 900.994 962.883 L 900.918 942.124 z"/>
<path transform="translate(0,0)" fill="rgb(82,80,88)" d="M 901.041 880.228 L 921.95 880.2 L 921.98 921.918 L 900.946 921.979 L 900.992 902.263 C 893.997 902.301 886.914 902.551 879.986 901.684 C 887.501 901.035 893.435 901.175 901.002 901.306 L 901.041 880.228 z"/>
<path transform="translate(0,0)" fill="rgb(118,113,83)" d="M 988.337 938.118 C 988.593 935.178 988.437 932.958 990.069 930.569 C 991.722 933.724 991.01 938.33 990.549 941.797 L 989.671 941.559 L 988.337 938.118 z"/>
<path transform="translate(0,0)" fill="rgb(82,80,88)" d="M 901.126 839.96 L 1003.93 840.003 L 1003.78 859.983 L 901.094 860.089 L 901.126 839.96 z"/>
<path transform="translate(0,0)" fill="rgb(155,146,135)" d="M 902.839 798.153 C 924.902 797.382 947.289 798.275 969.391 797.841 C 973.355 797.763 979.445 797.739 983.362 798.298 L 983.33 819.297 L 942.077 819.207 C 931.648 819.359 910.552 820.601 901.096 819.487 C 901.024 814.811 899.85 801.092 902.839 798.153 z"/>
<path transform="translate(0,0)" fill="rgb(82,80,88)" d="M 942.028 798.936 C 953.93 798.903 971.998 799.329 983.362 798.298 L 983.33 819.297 L 942.077 819.207 L 942.028 798.936 z"/>
<path transform="translate(0,0)" fill="rgb(82,80,88)" d="M 901.096 819.487 C 901.024 814.811 899.85 801.092 902.839 798.153 C 909.704 798.748 914.837 798.707 921.747 798.627 L 921.806 818.886 C 916.056 818.929 906.45 818.734 901.096 819.487 z"/>
<path transform="translate(0,0)" fill="rgb(82,80,88)" d="M 942.123 880.184 L 962.395 880.098 C 962.306 894.037 962.342 907.976 962.503 921.913 L 942.03 921.802 L 942.123 880.184 z"/>
<path transform="translate(0,0)" fill="rgb(82,80,88)" d="M 983.767 880.168 L 1003.95 880.306 L 1003.85 921.881 L 983.826 921.805 C 984.016 908.096 983.797 893.916 983.767 880.168 z"/>
<path transform="translate(0,0)" fill="rgb(82,80,88)" d="M 962.637 757.762 L 983.68 757.967 L 1003.96 757.961 L 1003.87 777.997 L 983.233 777.958 L 962.659 778.012 L 962.637 757.762 z"/>
<path transform="translate(0,0)" fill="rgb(155,146,135)" d="M 983.68 757.967 L 1003.96 757.961 L 1003.87 777.997 L 983.233 777.958 C 983.156 771.235 983.436 764.682 983.68 757.967 z"/>
<path transform="translate(0,0)" fill="rgb(82,80,88)" d="M 901.236 757.87 L 942.018 757.791 L 942.003 777.857 C 928.498 778.015 914.767 777.892 901.242 777.894 L 901.236 757.87 z"/>
<path transform="translate(0,0)" fill="rgb(95,62,47)" d="M 1146.93 757.969 L 1167.61 758.019 C 1167.63 764.08 1167.43 772.117 1167.81 778.005 L 1187.89 778.021 C 1194.32 777.956 1201.54 777.717 1207.9 777.856 L 1228.2 778.011 C 1228.27 790.906 1228.72 806.326 1228.21 819.012 L 1228.27 859.992 L 1208.02 860.351 L 1208.09 941.837 L 1187.97 942.072 L 1188.06 962.608 L 1126.23 963.064 L 1126.03 983.146 C 1119.77 983.18 1112.24 983.407 1106.11 983.12 L 1105.82 962.141 L 1125.89 962.119 C 1126.35 894.063 1126.41 826.004 1126.07 757.947 L 1146.93 757.969 z"/>
<path transform="translate(0,0)" fill="rgb(172,129,86)" d="M 1146.93 757.969 L 1167.61 758.019 C 1167.63 764.08 1167.43 772.117 1167.81 778.005 C 1167.47 817.357 1166.94 862.03 1168.04 901.168 C 1167.5 914.894 1167.82 928.136 1167.55 941.752 L 1146.74 941.854 L 1146.86 962.068 L 1125.89 962.119 C 1126.35 894.063 1126.41 826.004 1126.07 757.947 L 1146.93 757.969 z"/>
<path transform="translate(0,0)" fill="rgb(132,89,63)" d="M 1146.93 757.969 L 1167.61 758.019 C 1167.63 764.08 1167.43 772.117 1167.81 778.005 C 1167.47 817.357 1166.94 862.03 1168.04 901.168 C 1167.5 914.894 1167.82 928.136 1167.55 941.752 L 1146.74 941.854 C 1146.25 924.875 1146.82 904.725 1146.79 887.395 L 1146.93 757.969 z"/>
<path transform="translate(0,0)" fill="rgb(172,129,86)" d="M 1187.89 778.021 C 1194.32 777.956 1201.54 777.717 1207.9 777.856 L 1228.2 778.011 C 1228.27 790.906 1228.72 806.326 1228.21 819.012 L 1208.13 818.864 L 1187.97 819.078 L 1187.76 901.279 L 1168.04 901.168 C 1166.94 862.03 1167.47 817.357 1167.81 778.005 L 1187.89 778.021 z"/>
<path transform="translate(0,0)" fill="rgb(132,89,63)" d="M 1187.89 778.021 C 1194.32 777.956 1201.54 777.717 1207.9 777.856 L 1228.2 778.011 C 1228.27 790.906 1228.72 806.326 1228.21 819.012 L 1208.13 818.864 L 1187.97 819.078 L 1187.89 778.021 z"/>
<path transform="translate(0,0)" fill="rgb(172,129,86)" d="M 1207.9 777.856 L 1228.2 778.011 C 1228.27 790.906 1228.72 806.326 1228.21 819.012 L 1208.13 818.864 C 1208.31 805.194 1208.23 791.522 1207.9 777.856 z"/>
<path transform="translate(0,0)" fill="rgb(200,162,114)" d="M 1003.32 491.788 L 1023.61 491.8 L 1024.54 492.293 C 1029.4 492.268 1039.89 492.456 1044.25 491.735 C 1044.22 498.228 1044.03 505.389 1044.19 511.82 L 1043.94 512.461 L 1044.02 820.204 L 1043.92 915.491 C 1043.92 930.288 1043.44 948.309 1044.04 962.923 L 1044.01 982.991 L 1024.5 982.981 C 1023.91 969.697 1024.02 955.368 1023.91 941.988 L 1024.01 738.026 L 1008.85 737.874 L 1004.12 738.025 C 1003.39 731.895 1003.71 718.42 1003.72 711.861 L 1003.81 665.277 C 1004.29 607.447 1004.13 549.614 1003.32 491.788 z"/>
<path transform="translate(0,0)" fill="rgb(172,129,86)" d="M 1003.32 491.788 L 1023.61 491.8 L 1024.54 492.293 C 1029.4 492.268 1039.89 492.456 1044.25 491.735 C 1044.22 498.228 1044.03 505.389 1044.19 511.82 L 1043.94 512.461 C 1038.8 511.75 1029.63 512.231 1024.13 512.36 L 1024.08 737.015 C 1019.18 737.169 1013.64 737.164 1008.85 737.874 L 1004.12 738.025 C 1003.39 731.895 1003.71 718.42 1003.72 711.861 L 1003.81 665.277 C 1004.29 607.447 1004.13 549.614 1003.32 491.788 z"/>
<path transform="translate(0,0)" fill="rgb(172,129,86)" d="M 1024.54 492.293 C 1029.4 492.268 1039.89 492.456 1044.25 491.735 C 1044.22 498.228 1044.03 505.389 1044.19 511.82 L 1043.94 512.461 C 1038.8 511.75 1029.63 512.231 1024.13 512.36 C 1024.06 505.687 1023.79 498.912 1024.54 492.293 z"/>
<path transform="translate(0,0)" fill="rgb(172,129,86)" d="M 1086.14 511.923 L 1105.89 512.013 C 1106.51 580.176 1106.56 648.343 1106.04 716.507 L 1105.94 737.969 L 1126.03 737.824 L 1126.07 757.947 C 1126.41 826.004 1126.35 894.063 1125.89 962.119 L 1105.82 962.141 L 1106.11 983.12 L 1086.01 983.141 L 1085.99 859.995 C 1086.15 744.775 1084.62 626.859 1086.14 511.923 z"/>
<path transform="translate(0,0)" fill="rgb(132,89,63)" d="M 1105.94 737.969 L 1126.03 737.824 L 1126.07 757.947 C 1126.41 826.004 1126.35 894.063 1125.89 962.119 L 1105.82 962.141 C 1104.88 934.659 1105.76 899.797 1105.85 871.734 L 1105.94 737.969 z"/>
<path transform="translate(0,0)" fill="rgb(172,129,86)" d="M 1044.19 511.82 C 1050.36 511.992 1058.21 511.843 1064.08 512.205 L 1064.06 815.967 L 1063.89 911.618 C 1063.86 924.748 1063.09 950.465 1064.17 962.653 C 1058.07 962.682 1049.96 962.501 1044.04 962.923 C 1043.44 948.309 1043.92 930.288 1043.92 915.491 L 1044.02 820.204 L 1043.94 512.461 L 1044.19 511.82 z"/>
<path transform="translate(0,0)" fill="rgb(95,62,47)" d="M 1064.88 860.437 C 1071.75 860.147 1079.08 860.132 1085.99 859.995 L 1086.01 983.141 L 1064.84 983.89 C 1064.7 989.089 1064.72 997.276 1064.21 1002.26 L 1063.69 1003.18 C 1060.34 1004.24 1048.8 1003.9 1044.7 1003.9 C 1044.76 997.225 1044.65 990.545 1044.38 983.87 L 1044.01 982.991 L 1044.04 962.923 C 1049.96 962.501 1058.07 962.682 1064.17 962.653 C 1065.34 955.63 1064.74 936.282 1064.75 928.344 L 1064.88 860.437 z"/>
<path transform="translate(0,0)" fill="rgb(132,89,63)" d="M 1064.17 962.653 C 1064.2 973.957 1063.49 991.718 1064.21 1002.26 L 1063.69 1003.18 C 1060.34 1004.24 1048.8 1003.9 1044.7 1003.9 C 1044.76 997.225 1044.65 990.545 1044.38 983.87 L 1044.01 982.991 L 1044.04 962.923 C 1049.96 962.501 1058.07 962.682 1064.17 962.653 z"/>
<path transform="translate(0,0)" fill="rgb(27,31,60)" d="M 1064.31 491.604 C 1071.95 491.544 1078.39 491.433 1085.98 492.11 C 1085.83 498.545 1085.6 504.891 1085.9 511.322 C 1080.43 512.476 1070.66 512.075 1064.68 512.04 L 1064.31 491.604 z"/>
<path transform="translate(0,0)" fill="rgb(172,129,86)" d="M 1044.04 470.976 L 1064.22 470.981 L 1064.7 491.179 C 1058.98 491.118 1049.55 490.7 1044.25 491.735 C 1039.89 492.456 1029.4 492.268 1024.54 492.293 L 1023.61 491.8 C 1027.07 491.208 1039.84 491.202 1044.03 491.118 L 1044.04 470.976 z"/>
<path transform="translate(0,0)" fill="rgb(200,162,114)" d="M 491.993 429.968 L 532.193 430.026 L 532.081 450.156 C 537.394 450.199 547.709 450.008 552.52 450.794 L 576.185 450.732 C 575.571 457.918 575.332 463.94 575.189 471.161 L 655.49 471.099 L 675.973 471.106 L 676.028 451.113 C 682.687 450.973 689.348 450.882 696.01 450.84 L 696.145 461.641 C 696.834 466.985 695.908 467.036 698.872 470.1 C 703.777 472.053 710.171 470.647 716.256 470.944 L 757.999 470.961 C 757.899 504.973 758.459 539.861 757.998 573.707 C 757.925 587.237 757.927 600.767 758.003 614.296 C 757.904 618.916 757.938 630.887 757.366 634.895 C 752.57 634.444 743.105 634.706 737.952 634.704 C 737.87 639.673 737.113 651.896 738.991 655.731 C 736.456 661.784 738.016 838.182 737.909 860.178 L 737.951 901.093 L 715.993 901.067 L 696.142 901.143 C 696.223 921.287 696.633 942.404 696.235 962.474 C 691.25 961.638 681.259 961.905 675.793 961.898 C 669.278 962.024 662.494 961.941 655.953 961.957 L 634.226 962.134 C 634.808 949.961 634.484 934.325 634.584 921.902 L 614.105 921.897 L 594.112 921.82 L 574.036 921.826 L 573.796 941.867 L 573.211 942.098 L 551.182 941.848 L 550.241 941.808 C 536.129 942.829 510.83 941.984 495.878 941.971 L 471.402 941.943 C 470.078 928.412 470.923 900.758 470.957 885.946 L 471.158 777.781 L 471.418 450.916 L 491.954 450.763 L 491.993 429.968 z"/>
<path transform="translate(0,0)" fill="rgb(172,129,86)" d="M 491.993 429.968 L 532.193 430.026 L 532.081 450.156 C 537.394 450.199 547.709 450.008 552.52 450.794 L 576.185 450.732 C 575.571 457.918 575.332 463.94 575.189 471.161 L 491.999 471.001 L 491.883 713.499 C 491.842 755.115 492.622 797.914 491.681 839.39 C 498.492 839.205 505.288 838.969 512.101 839.029 L 511.972 491.863 L 532.067 491.875 C 532.926 580.32 533.004 668.771 532.303 757.217 C 538.732 757.079 545.743 756.789 552.121 756.854 L 552.293 585.55 C 552.3 555.217 553.162 522.098 552.187 492.09 L 574.015 491.953 C 573.298 579.631 575.559 669.72 573.856 756.998 L 593.92 756.72 L 593.96 577.943 C 593.947 550.132 594.545 519.572 593.673 491.932 L 614.152 491.829 L 614.138 675.421 C 614.207 707.831 615.128 745.698 614.098 777.772 L 614.25 798.366 L 631.22 798.407 L 634.433 797.239 C 636.56 788.723 634.554 743.365 634.543 730.197 L 634.515 573.164 C 634.467 547.107 633.51 517.523 634.321 491.764 L 655.304 491.954 L 655.953 961.957 L 634.226 962.134 C 634.808 949.961 634.484 934.325 634.584 921.902 L 614.105 921.897 L 594.112 921.82 L 574.036 921.826 L 573.796 941.867 L 573.211 942.098 L 551.182 941.848 L 550.241 941.808 C 536.129 942.829 510.83 941.984 495.878 941.971 L 471.402 941.943 C 470.078 928.412 470.923 900.758 470.957 885.946 L 471.158 777.781 L 471.418 450.916 L 491.954 450.763 L 491.993 429.968 z"/>
<path transform="translate(0,0)" fill="rgb(27,31,60)" d="M 532.361 758.015 L 594.066 757.77 L 594.117 777.872 L 614.098 777.772 L 614.25 798.366 L 631.22 798.407 L 633.805 799.107 C 636.097 803.455 634.986 833.589 634.9 840.027 C 629.161 840.045 619.246 839.786 613.976 840.701 L 614.046 860.247 L 594.047 860.356 L 594.033 880.306 L 573.84 880.369 C 573.548 866.919 573.496 853.466 573.686 840.015 L 552.998 840.235 L 552.98 860.107 C 539.342 860.03 525.704 860.046 512.066 860.154 L 511.937 880.035 L 494.872 880.261 L 492.731 879.487 C 490.641 874.729 491.681 846.61 491.785 840.038 L 532.348 839.837 C 532.35 832.889 532.397 825.942 532.489 818.994 C 532.309 805.936 531.78 790.817 532.296 777.943 L 532.361 758.015 z"/>
<path transform="translate(0,0)" fill="rgb(200,162,114)" d="M 532.296 777.943 L 552.758 778.142 L 552.696 798.575 C 552.286 805.695 552.382 811.903 552.492 819.041 L 532.489 818.994 C 532.309 805.936 531.78 790.817 532.296 777.943 z"/>
<path transform="translate(0,0)" fill="rgb(172,129,86)" d="M 552.696 798.575 C 559.54 798.522 566.782 798.346 573.587 798.518 L 573.731 819.18 L 552.492 819.041 C 552.382 811.903 552.286 805.695 552.696 798.575 z"/>
<path transform="translate(0,0)" fill="rgb(172,129,86)" d="M 573.81 819.662 L 593.875 819.692 L 593.917 839.776 L 573.686 840.015 L 573.81 819.662 z"/>
<path transform="translate(0,0)" fill="rgb(27,31,60)" d="M 532.586 901.276 L 552.522 901.389 C 563.229 901.643 579.566 902.228 590.017 901.149 L 593.984 901.459 C 606.181 901.478 618.821 901.67 630.977 901.474 L 633.933 902.427 C 635.811 907.665 634.864 916.059 634.584 921.902 L 614.105 921.897 L 594.112 921.82 L 574.036 921.826 L 573.796 941.867 L 573.211 942.098 L 551.182 941.848 L 550.241 941.808 C 536.129 942.829 510.83 941.984 495.878 941.971 L 495.67 941.369 C 493.165 940.981 494.272 941.484 492.342 939.878 C 491.2 934.097 491.749 927.866 491.932 921.904 C 491.855 915.012 491.871 908.12 491.981 901.228 L 512.095 901.356 C 518.806 901.333 525.916 901.436 532.586 901.276 z"/>
<path transform="translate(0,0)" fill="rgb(172,129,86)" d="M 491.932 921.904 L 512.143 921.923 L 532.989 921.929 L 552.11 921.907 C 552.158 926.746 552.729 937.853 551.182 941.848 L 550.241 941.808 C 536.129 942.829 510.83 941.984 495.878 941.971 L 495.67 941.369 C 493.165 940.981 494.272 941.484 492.342 939.878 C 491.2 934.097 491.749 927.866 491.932 921.904 z"/>
<path transform="translate(0,0)" fill="rgb(200,162,114)" d="M 491.932 921.904 L 512.143 921.923 L 511.99 940.941 L 495.67 941.369 C 493.165 940.981 494.272 941.484 492.342 939.878 C 491.2 934.097 491.749 927.866 491.932 921.904 z"/>
<path transform="translate(0,0)" fill="rgb(200,162,114)" d="M 532.989 921.929 L 552.11 921.907 C 552.158 926.746 552.729 937.853 551.182 941.848 L 550.241 941.808 C 545.7 941.17 537.858 941.449 533.026 941.472 C 532.939 934.988 532.991 928.42 532.989 921.929 z"/>
<path transform="translate(0,0)" fill="rgb(172,129,86)" d="M 552.11 921.907 L 574.036 921.826 L 573.796 941.867 L 573.211 942.098 L 551.182 941.848 C 552.729 937.853 552.158 926.746 552.11 921.907 z"/>
<path transform="translate(0,0)" fill="rgb(132,89,63)" d="M 491.993 429.968 L 532.193 430.026 L 532.081 450.156 C 537.394 450.199 547.709 450.008 552.52 450.794 L 576.185 450.732 C 575.571 457.918 575.332 463.94 575.189 471.161 L 491.999 471.001 L 472.148 471.063 L 472.068 790.238 L 471.969 891.767 C 471.935 903.141 472.471 931.805 471.402 941.943 C 470.078 928.412 470.923 900.758 470.957 885.946 L 471.158 777.781 L 471.418 450.916 L 491.954 450.763 L 491.993 429.968 z"/>
<path transform="translate(0,0)" fill="rgb(172,129,86)" d="M 491.993 429.968 L 532.193 430.026 L 532.081 450.156 C 537.394 450.199 547.709 450.008 552.52 450.794 C 534.222 451.68 510.632 450.874 491.954 450.763 L 491.993 429.968 z"/>
<path transform="translate(0,0)" fill="rgb(200,162,114)" d="M 614.046 860.247 L 613.976 840.701 C 621.101 841.313 627.07 841.214 634.211 841.154 C 634.518 854.227 635.491 887.812 633.791 899.836 C 632.041 901.021 632.944 900.693 631.153 900.996 C 627.478 900.561 618.058 900.702 614.047 900.675 C 614.434 887.694 614.101 873.331 614.046 860.247 z"/>
<path transform="translate(0,0)" fill="rgb(200,162,114)" d="M 531.919 861.055 C 538.904 860.981 545.797 860.786 552.765 861.298 C 552.65 872.116 553.286 891.567 552.522 901.389 L 532.586 901.276 C 532.22 887.858 532.313 874.419 531.919 861.055 z"/>
<path transform="translate(0,0)" fill="rgb(200,162,114)" d="M 494.813 880.983 C 500.852 881.204 505.907 881.289 511.955 881.146 L 512.095 901.356 L 491.981 901.228 C 491.931 896.095 491.402 886.325 492.658 881.912 L 494.813 880.983 z"/>
<path transform="translate(0,0)" fill="rgb(200,162,114)" d="M 574.134 881.389 L 593.832 881.384 L 593.984 901.459 L 590.017 901.149 C 583.979 900.718 579.821 900.611 573.79 900.698 L 574.134 881.389 z"/>
<path transform="translate(0,0)" fill="rgb(103,139,139)" d="M 676.028 451.113 C 682.687 450.973 689.348 450.882 696.01 450.84 L 696.145 461.641 C 696.834 466.985 695.908 467.036 698.872 470.1 C 703.777 472.053 710.171 470.647 716.256 470.944 L 757.999 470.961 C 757.899 504.973 758.459 539.861 757.998 573.707 C 757.925 587.237 757.927 600.767 758.003 614.296 C 757.904 618.916 757.938 630.887 757.366 634.895 C 752.57 634.444 743.105 634.706 737.952 634.704 L 716.896 634.756 C 717.056 641.399 718.227 648.373 715.908 654.001 C 712.562 656.17 713.145 655.462 708.539 655.705 L 695.946 655.718 L 675.997 655.77 C 674.724 595.891 675.966 531.37 675.973 471.106 L 676.028 451.113 z"/>
<path transform="translate(0,0)" fill="rgb(27,31,60)" d="M 676.028 451.113 C 682.687 450.973 689.348 450.882 696.01 450.84 L 696.145 461.641 L 696.315 634.81 L 716.896 634.756 C 717.056 641.399 718.227 648.373 715.908 654.001 C 712.562 656.17 713.145 655.462 708.539 655.705 L 695.946 655.718 L 675.997 655.77 C 674.724 595.891 675.966 531.37 675.973 471.106 L 676.028 451.113 z"/>
<path transform="translate(0,0)" fill="rgb(61,97,110)" d="M 716.256 470.944 L 757.999 470.961 C 757.899 504.973 758.459 539.861 757.998 573.707 C 751.238 573.977 742.945 573.625 736.059 573.507 C 736.408 553.048 736.461 532.585 736.22 512.125 L 716.499 512.101 C 716.252 498.508 716.335 484.569 716.256 470.944 z"/>
<path transform="translate(0,0)" fill="rgb(27,31,60)" d="M 716.748 614.172 L 738.006 614.186 L 737.952 634.704 L 716.896 634.756 C 716.774 627.895 716.725 621.034 716.748 614.172 z"/>
<path transform="translate(0,0)" fill="rgb(172,129,86)" d="M 716.896 634.756 L 737.952 634.704 C 737.87 639.673 737.113 651.896 738.991 655.731 C 736.456 661.784 738.016 838.182 737.909 860.178 L 737.951 901.093 L 715.993 901.067 L 696.142 901.143 L 695.946 655.718 L 708.539 655.705 C 713.145 655.462 712.562 656.17 715.908 654.001 C 718.227 648.373 717.056 641.399 716.896 634.756 z"/>
<path transform="translate(0,0)" fill="rgb(200,162,114)" d="M 695.946 655.718 L 708.539 655.705 C 712.38 656.181 714.012 655.656 716.388 657.736 C 715.834 738.236 717.444 821.131 715.993 901.067 L 696.142 901.143 L 695.946 655.718 z"/>
<path transform="translate(0,0)" fill="rgb(172,129,86)" d="M 675.997 655.77 L 695.946 655.718 L 696.142 901.143 C 696.223 921.287 696.633 942.404 696.235 962.474 C 691.25 961.638 681.259 961.905 675.793 961.898 C 674.567 925.709 675.764 880.03 675.904 843.5 L 675.997 655.77 z"/>
<path transform="translate(0,0)" fill="rgb(254,254,254)" d="M 1351.34 737.577 C 1378.89 737.155 1406.45 736.993 1434.01 737.09 C 1433.95 748.759 1433.16 767.239 1433.73 778.283 C 1446.87 778.854 1461.16 777.719 1474.94 778.079 L 1474.99 901.099 L 1434.07 901.001 C 1434.01 914.563 1434.11 928.408 1433.88 941.94 L 1393.01 941.974 C 1392.99 981.907 1392.18 1025.34 1392.99 1065.02 L 1434.08 1064.95 L 1434.27 1106.04 L 1433.98 1147.01 L 1474.99 1146.97 L 1475.13 1269.54 L 1434.07 1269.41 L 1433.59 1310.45 C 1420.33 1310.43 1406.08 1310.14 1392.9 1310.47 L 1392.96 1351.62 C 1386.24 1352.43 1370.53 1352.13 1363.47 1352.12 L 1310.86 1351.98 C 1310.71 1338.2 1310.49 1324.41 1310.18 1310.63 C 1296.84 1310.24 1283.41 1310.5 1270.05 1310.63 L 1269.82 1269.79 C 1256.15 1269.89 1242.48 1269.89 1228.81 1269.77 C 1215.27 1269.65 1201.58 1269.37 1188.05 1269.79 C 1187.57 1256.95 1187.9 1242.03 1187.88 1229.02 L 1187.92 1104.84 L 1188.01 1064.87 L 1228.95 1064.97 L 1228.97 982.96 L 1269.99 982.952 L 1269.85 900.804 L 1269.93 818.969 L 1310.91 819.043 L 1310.85 778.453 C 1324.22 778.303 1337.6 778.405 1350.97 778.759 L 1351.05 778.415 C 1352.01 764.965 1351.01 751.063 1351.34 737.577 z"/>
<path transform="translate(0,0)" fill="rgb(233,227,198)" d="M 1433.73 778.283 C 1446.87 778.854 1461.16 777.719 1474.94 778.079 L 1474.99 901.099 L 1434.07 901.001 C 1434.01 914.563 1434.11 928.408 1433.88 941.94 L 1393.01 941.974 L 1393.06 901.654 C 1405.55 901.945 1421.23 901.194 1433.99 900.985 C 1433.29 860.553 1434.12 818.973 1433.73 778.283 z"/>
<path transform="translate(0,0)" fill="rgb(233,227,198)" d="M 1433.98 1147.01 L 1474.99 1146.97 L 1475.13 1269.54 L 1434.07 1269.41 L 1433.98 1147.01 z"/>
<path transform="translate(0,0)" fill="rgb(233,227,198)" d="M 1269.99 982.952 L 1270.01 1064.23 C 1256.31 1064.65 1242.59 1064.8 1228.88 1064.68 L 1228.58 1105.69 C 1218.93 1105.83 1196.61 1106.63 1187.92 1104.84 L 1188.01 1064.87 L 1228.95 1064.97 L 1228.97 982.96 L 1269.99 982.952 z"/>
<path transform="translate(0,0)" fill="rgb(233,227,198)" d="M 1351.34 737.577 C 1378.89 737.155 1406.45 736.993 1434.01 737.09 C 1433.95 748.759 1433.16 767.239 1433.73 778.283 L 1351.05 778.415 C 1352.01 764.965 1351.01 751.063 1351.34 737.577 z"/>
<path transform="translate(0,0)" fill="rgb(233,227,198)" d="M 1269.93 818.969 L 1310.91 819.043 C 1310.92 838.401 1312.02 883.749 1310.04 900.86 C 1296.74 900.864 1283.12 901.021 1269.85 900.804 L 1269.93 818.969 z"/>
<path transform="translate(0,0)" fill="rgb(233,227,198)" d="M 1392.99 1065.02 L 1434.08 1064.95 L 1434.27 1106.04 C 1420.06 1106.01 1407.11 1105.95 1392.94 1105.12 L 1392.99 1065.02 z"/>
<path transform="translate(0,0)" fill="rgb(233,227,198)" d="M 1187.88 1229.02 C 1201.29 1228.86 1214.69 1228.83 1228.1 1228.94 C 1228.29 1242.17 1228.21 1256.65 1228.81 1269.77 C 1215.27 1269.65 1201.58 1269.37 1188.05 1269.79 C 1187.57 1256.95 1187.9 1242.03 1187.88 1229.02 z"/>
<path transform="translate(0,0)" fill="rgb(233,227,198)" d="M 1310.85 778.453 C 1324.22 778.303 1337.6 778.405 1350.97 778.759 C 1351.76 790.94 1351.2 806.812 1351.04 819.306 C 1337.66 819.558 1324.29 819.796 1310.91 819.043 L 1310.85 778.453 z"/>
<path transform="translate(0,0)" fill="rgb(132,89,63)" d="M 1064.84 368.014 C 1158.81 367.515 1258.03 366.672 1351.78 368.211 L 1351.83 389.064 L 1362.6 389.373 C 1369.54 389.18 1385.98 388.45 1392.08 389.634 L 1392.13 696.028 L 1372.2 696.13 L 1372.07 655.304 C 1366.25 655.661 1357.94 655.337 1351.92 655.266 L 1331.02 655.328 L 1310.13 655.231 C 1310.12 661.829 1309.95 669.334 1310.23 675.845 C 1310.36 682.672 1310.38 689.5 1310.32 696.328 L 1310.15 716.232 L 1290.3 716.193 L 1269.81 716.412 L 1269.9 737.556 C 1256.23 738.69 1232.96 737.952 1218.22 737.922 L 1126.03 737.824 L 1105.94 737.969 L 1106.04 716.507 C 1106.56 648.343 1106.51 580.176 1105.89 512.013 L 1086.14 511.923 L 1085.9 511.322 C 1085.6 504.891 1085.83 498.545 1085.98 492.11 L 1086.49 491.865 C 1084.89 486.362 1085.37 476.895 1085.83 471.126 L 1106.09 471.009 L 1105.91 450.621 C 1117.71 451.128 1135.03 450.313 1147.06 450.062 L 1147.05 429.929 L 1003.78 429.925 C 1004.06 423.777 1003.79 415.394 1003.78 409.074 C 1016.45 410.194 1031.77 410.024 1044.71 410.165 C 1044.74 403.753 1044.34 396.505 1044.12 390.028 C 1049.51 390.037 1059.09 390.468 1063.89 389.04 L 1064.86 389.013 L 1065.02 368.839 L 1064.84 368.014 z"/>
<path transform="translate(0,0)" fill="rgb(132,89,63)" d="M 1362.6 389.373 C 1369.54 389.18 1385.98 388.45 1392.08 389.634 L 1392.13 696.028 L 1372.2 696.13 L 1372.07 655.304 C 1366.25 655.661 1357.94 655.337 1351.92 655.266 L 1331.02 655.328 L 1310.13 655.231 C 1310.12 661.829 1309.95 669.334 1310.23 675.845 C 1310.36 682.672 1310.38 689.5 1310.32 696.328 L 1310.15 716.232 L 1290.3 716.193 L 1269.81 716.412 C 1268.62 692.446 1269.69 659.573 1269.82 635.006 L 1269.86 614.162 C 1269.53 607.892 1269.73 600.231 1269.74 593.84 L 1290.01 593.645 L 1289.9 429.759 L 1290.11 409.674 L 1290.66 409.39 C 1296.91 409.296 1301.97 409.247 1308.23 409.619 L 1310.14 410.127 C 1317.36 409.982 1324.59 409.934 1331.81 409.982 L 1351.75 410.018 L 1351.81 390.185 C 1356.87 390.53 1357.68 390.56 1362.6 389.373 z"/>
<path transform="translate(0,0)" fill="rgb(172,129,86)" d="M 1362.6 389.373 C 1369.54 389.18 1385.98 388.45 1392.08 389.634 L 1392.13 696.028 L 1372.2 696.13 L 1372.07 655.304 C 1366.25 655.661 1357.94 655.337 1351.92 655.266 C 1351.33 629.439 1351.89 601.32 1351.9 575.351 L 1351.75 410.018 L 1351.81 390.185 C 1356.87 390.53 1357.68 390.56 1362.6 389.373 z"/>
<path transform="translate(0,0)" fill="rgb(132,89,63)" d="M 1362.6 389.373 C 1369.54 389.18 1385.98 388.45 1392.08 389.634 C 1385.35 389.931 1378.61 390.076 1371.88 390.07 C 1373.16 468.735 1371.65 547.746 1372.29 626.456 C 1372.37 635.671 1372.6 646.167 1372.07 655.304 C 1366.25 655.661 1357.94 655.337 1351.92 655.266 C 1351.33 629.439 1351.89 601.32 1351.9 575.351 L 1351.75 410.018 L 1351.81 390.185 C 1356.87 390.53 1357.68 390.56 1362.6 389.373 z"/>
<path transform="translate(0,0)" fill="rgb(172,129,86)" d="M 1331.81 409.982 L 1351.75 410.018 L 1351.9 575.351 C 1351.89 601.32 1351.33 629.439 1351.92 655.266 L 1331.02 655.328 C 1332.62 574.491 1328.94 490.295 1331.81 409.982 z"/>
<path transform="translate(0,0)" fill="rgb(27,31,60)" d="M 1290.66 409.39 C 1296.91 409.296 1301.97 409.247 1308.23 409.619 L 1310.14 410.127 L 1309.95 614.161 C 1296.59 614.338 1283.22 614.338 1269.86 614.162 C 1269.53 607.892 1269.73 600.231 1269.74 593.84 L 1290.01 593.645 L 1289.9 429.759 L 1290.11 409.674 L 1290.66 409.39 z"/>
<path transform="translate(0,0)" fill="rgb(172,129,86)" d="M 1290.1 615.288 L 1310 615.223 C 1309.87 628.465 1310.06 641.967 1310.13 655.231 C 1310.12 661.829 1309.95 669.334 1310.23 675.845 C 1310.36 682.672 1310.38 689.5 1310.32 696.328 L 1310.15 716.232 L 1290.3 716.193 C 1289.99 682.559 1289.92 648.923 1290.1 615.288 z"/>
<path transform="translate(0,0)" fill="rgb(103,139,139)" d="M 1064.84 368.014 C 1158.81 367.515 1258.03 366.672 1351.78 368.211 L 1351.83 389.064 L 1362.6 389.373 C 1357.68 390.56 1356.87 390.53 1351.81 390.185 L 1351.75 410.018 L 1331.81 409.982 C 1324.59 409.934 1317.36 409.982 1310.14 410.127 L 1308.23 409.619 C 1301.97 409.247 1296.91 409.296 1290.66 409.39 C 1289.84 405.464 1289.31 394.645 1288.97 390.133 L 1269.53 390.025 C 1269.49 394.031 1269.61 406.714 1268.79 409.851 L 1249.65 409.05 C 1249.61 416.057 1249.52 423.017 1249.74 430.022 L 1228.37 430.062 C 1228.39 436.775 1228.52 443.944 1228.27 450.613 C 1223.19 450.58 1212.72 450.794 1208.1 450.239 L 1208.06 429.894 L 1167.28 430.007 L 1147.05 429.929 L 1003.78 429.925 C 1004.06 423.777 1003.79 415.394 1003.78 409.074 C 1016.45 410.194 1031.77 410.024 1044.71 410.165 C 1044.74 403.753 1044.34 396.505 1044.12 390.028 C 1049.51 390.037 1059.09 390.468 1063.89 389.04 L 1064.86 389.013 L 1065.02 368.839 L 1064.84 368.014 z"/>
<path transform="translate(0,0)" fill="rgb(200,162,114)" d="M 1064.84 368.014 C 1158.81 367.515 1258.03 366.672 1351.78 368.211 L 1351.83 389.064 L 1362.6 389.373 C 1357.68 390.56 1356.87 390.53 1351.81 390.185 L 1351.75 410.018 L 1331.81 409.982 C 1324.59 409.934 1317.36 409.982 1310.14 410.127 L 1308.23 409.619 C 1301.97 409.247 1296.91 409.296 1290.66 409.39 C 1289.84 405.464 1289.31 394.645 1288.97 390.133 L 1290.2 389.373 L 1137.41 389.33 C 1118.43 389.34 1082.06 390.601 1064.86 389.013 L 1065.02 368.839 L 1064.84 368.014 z"/>
<path transform="translate(0,0)" fill="rgb(27,31,60)" d="M 1331.16 388.758 C 1336.8 388.748 1346.57 388.461 1351.83 389.064 L 1362.6 389.373 C 1357.68 390.56 1356.87 390.53 1351.81 390.185 L 1351.75 410.018 L 1331.81 409.982 C 1324.59 409.934 1317.36 409.982 1310.14 410.127 L 1308.23 409.619 C 1301.97 409.247 1296.91 409.296 1290.66 409.39 C 1289.84 405.464 1289.31 394.645 1288.97 390.133 L 1290.2 389.373 L 1310.02 389.071 L 1331.16 388.758 z"/>
<path transform="translate(0,0)" fill="rgb(132,89,63)" d="M 1331.16 388.758 C 1336.8 388.748 1346.57 388.461 1351.83 389.064 L 1362.6 389.373 C 1357.68 390.56 1356.87 390.53 1351.81 390.185 C 1339.44 389.285 1322.73 389.775 1310.08 389.917 C 1310.12 394.431 1310.53 404.813 1309.56 408.608 L 1308.23 409.619 C 1301.97 409.247 1296.91 409.296 1290.66 409.39 C 1289.84 405.464 1289.31 394.645 1288.97 390.133 L 1290.2 389.373 L 1310.02 389.071 L 1331.16 388.758 z"/>
<path transform="translate(0,0)" fill="rgb(143,101,72)" d="M 1064.84 368.014 C 1158.81 367.515 1258.03 366.672 1351.78 368.211 L 1351.83 389.064 C 1346.57 388.461 1336.8 388.748 1331.16 388.758 L 1310.02 389.071 L 1310.02 368.859 L 1065.02 368.839 L 1064.84 368.014 z"/>
<path transform="translate(0,0)" fill="rgb(172,129,86)" d="M 1310.02 368.859 C 1316.81 368.781 1324.62 368.511 1331.33 368.716 L 1331.16 388.758 L 1310.02 389.071 L 1310.02 368.859 z"/>
<path transform="translate(0,0)" fill="rgb(61,97,110)" d="M 1269.53 390.025 L 1288.97 390.133 C 1289.31 394.645 1289.84 405.464 1290.66 409.39 L 1290.11 409.674 L 1289.9 429.759 L 1290.01 593.645 L 1269.74 593.84 C 1269.73 600.231 1269.53 607.892 1269.86 614.162 L 1269.82 635.006 L 1249.85 634.856 C 1243.2 634.625 1235.52 634.783 1228.79 634.757 L 1208.18 634.82 L 1208.1 450.239 C 1212.72 450.794 1223.19 450.58 1228.27 450.613 C 1228.52 443.944 1228.39 436.775 1228.37 430.062 L 1249.74 430.022 C 1249.52 423.017 1249.61 416.057 1249.65 409.05 L 1268.79 409.851 C 1269.61 406.714 1269.49 394.031 1269.53 390.025 z"/>
<path transform="translate(0,0)" fill="rgb(27,31,60)" d="M 1228.7 614.418 C 1242.36 614.479 1256.19 614.266 1269.86 614.162 L 1269.82 635.006 L 1249.85 634.856 C 1243.2 634.625 1235.52 634.783 1228.79 634.757 L 1228.7 614.418 z"/>
<path transform="translate(0,0)" fill="rgb(103,139,139)" d="M 1270.04 410.178 C 1274.23 410.034 1286.56 409.337 1290.11 409.674 L 1289.9 429.759 L 1270.06 429.858 L 1270.04 410.178 z"/>
<path transform="translate(0,0)" fill="rgb(27,31,60)" d="M 1167.28 430.007 L 1208.06 429.894 L 1208.1 450.239 L 1208.18 634.82 L 1228.79 634.757 L 1228.83 655.19 C 1224 655.275 1217.29 655.16 1212.66 655.878 L 1208.21 655.638 L 1187.93 655.523 L 1187.94 471.083 L 1167.69 470.954 C 1153.85 471.093 1140.01 471.149 1126.17 471.123 L 1106.09 471.009 L 1105.91 450.621 C 1117.71 451.128 1135.03 450.313 1147.06 450.062 L 1147.05 429.929 L 1167.28 430.007 z"/>
<path transform="translate(0,0)" fill="rgb(132,89,63)" d="M 1147.05 429.929 L 1167.28 430.007 L 1167.57 450.713 C 1155.77 451.607 1138.54 451.109 1126.3 451.073 L 1126.17 471.123 L 1106.09 471.009 L 1105.91 450.621 C 1117.71 451.128 1135.03 450.313 1147.06 450.062 L 1147.05 429.929 z"/>
<path transform="translate(0,0)" fill="rgb(172,129,86)" d="M 1147.05 429.929 L 1167.28 430.007 L 1167.57 450.713 C 1162.65 450.071 1152.43 450.156 1147.06 450.062 L 1147.05 429.929 z"/>
<path transform="translate(0,0)" fill="rgb(172,129,86)" d="M 1167.69 470.954 L 1187.94 471.083 L 1187.93 655.523 L 1188.19 737.06 L 1167.53 737.231 L 1167.69 470.954 z"/>
<path transform="translate(0,0)" fill="rgb(172,129,86)" d="M 1126.25 492.024 L 1146.64 492.098 L 1146.76 509.25 L 1146.87 652.263 C 1146.84 680.307 1146.26 708.91 1146.98 736.857 L 1126.87 736.828 C 1126.95 730.755 1127.34 722.172 1126.48 716.393 L 1126.25 492.024 z"/>
<path transform="translate(0,0)" fill="rgb(172,129,86)" d="M 1249.85 634.856 L 1269.82 635.006 C 1269.69 659.573 1268.62 692.446 1269.81 716.412 L 1269.9 737.556 C 1264.24 736.814 1255.7 737.167 1249.76 737.236 C 1250 703.11 1250.03 668.983 1249.85 634.856 z"/>
<path transform="translate(0,0)" fill="rgb(172,129,86)" d="M 1208.21 655.638 L 1212.66 655.878 C 1217.03 656.368 1223.71 656.208 1228.29 656.238 C 1227.66 682.21 1228.78 710.343 1228.6 736.813 L 1208.2 736.904 C 1207.97 709.816 1207.97 682.726 1208.21 655.638 z"/>
<path transform="translate(0,0)" fill="rgb(27,31,60)" d="M 1106.09 471.009 L 1126.17 471.123 L 1126.19 491.872 L 1105.73 491.741 C 1099.22 491.589 1093 491.727 1086.49 491.865 C 1084.89 486.362 1085.37 476.895 1085.83 471.126 L 1106.09 471.009 z"/>
<path transform="translate(0,0)" fill="rgb(27,31,60)" d="M 1106.04 716.507 C 1112.85 716.422 1119.66 716.384 1126.48 716.393 C 1125.87 723.919 1125.96 730.26 1126.03 737.824 L 1105.94 737.969 L 1106.04 716.507 z"/>
<path transform="translate(0,0)" fill="rgb(143,101,72)" d="M 1086.49 491.865 C 1093 491.727 1099.22 491.589 1105.73 491.741 L 1105.89 512.013 L 1086.14 511.923 L 1085.9 511.322 C 1085.6 504.891 1085.83 498.545 1085.98 492.11 L 1086.49 491.865 z"/>
<path transform="translate(0,0)" fill="rgb(103,139,139)" d="M 737.805 347.987 C 763.319 347.851 788.834 347.906 814.347 348.152 C 836.341 347.989 858.337 347.979 880.331 348.121 L 880.448 367.641 C 873.603 367.806 866.757 367.933 859.91 368.022 L 819.348 368.046 C 819.332 375.075 819.266 382.104 819.151 389.131 C 819.094 394.639 819.292 405.01 818.774 410.114 C 806.594 409.272 790.44 409.776 778.049 409.861 C 778.046 416.431 777.901 423.53 778.056 430.048 L 777.942 449.968 C 773.253 449.953 761.763 449.562 757.894 450.715 L 757.999 470.961 L 716.256 470.944 C 710.171 470.647 703.777 472.053 698.872 470.1 C 695.908 467.036 696.834 466.985 696.145 461.641 L 696.01 450.84 C 689.348 450.882 682.687 450.973 676.028 451.113 L 675.973 471.106 L 655.49 471.099 L 575.189 471.161 C 575.332 463.94 575.571 457.918 576.185 450.732 L 552.52 450.794 C 547.709 450.008 537.394 450.199 532.081 450.156 L 532.193 430.026 C 538.285 430.037 547.149 429.793 553 430.239 L 552.915 409.733 C 559.745 409.513 566.841 409.687 573.696 409.76 L 613.97 409.926 L 614.171 389.745 C 627.475 389.169 642.446 389.363 655.883 389.262 L 655.823 368.215 L 737.726 367.993 L 737.805 347.987 z"/>
<path transform="translate(0,0)" fill="rgb(200,162,114)" d="M 552.915 409.733 C 559.745 409.513 566.841 409.687 573.696 409.76 L 613.97 409.926 C 626.631 409.923 712.845 408.719 716.181 410.98 L 716.575 412.82 C 716.73 418.527 716.826 424.236 716.862 429.944 C 716.887 434.497 717.257 445.763 716.273 449.561 L 715.115 450.305 C 708.748 450.539 702.38 450.717 696.01 450.84 C 689.348 450.882 682.687 450.973 676.028 451.113 L 675.973 471.106 L 655.49 471.099 L 575.189 471.161 C 575.332 463.94 575.571 457.918 576.185 450.732 L 552.52 450.794 C 547.709 450.008 537.394 450.199 532.081 450.156 L 532.193 430.026 C 538.285 430.037 547.149 429.793 553 430.239 L 552.915 409.733 z"/>
<path transform="translate(0,0)" fill="rgb(143,101,72)" d="M 576.185 450.732 C 615.831 450.896 656.91 449.495 696.024 450.116 L 715.115 450.305 C 708.748 450.539 702.38 450.717 696.01 450.84 C 689.348 450.882 682.687 450.973 676.028 451.113 L 675.973 471.106 L 655.49 471.099 L 575.189 471.161 C 575.332 463.94 575.571 457.918 576.185 450.732 z"/>
<path transform="translate(0,0)" fill="rgb(132,89,63)" d="M 655.208 451.193 C 662.148 451.254 669.088 451.228 676.028 451.113 L 675.973 471.106 L 655.49 471.099 L 655.208 451.193 z"/>
<path transform="translate(0,0)" fill="rgb(172,129,86)" d="M 552.915 409.733 C 559.745 409.513 566.841 409.687 573.696 409.76 L 573.696 430.049 C 569.066 430.172 556.979 430.747 553 430.239 L 552.915 409.733 z"/>
<path transform="translate(0,0)" fill="rgb(27,31,60)" d="M 696.002 430.01 L 716.862 429.944 C 716.887 434.497 717.257 445.763 716.273 449.561 L 715.115 450.305 L 696.024 450.116 L 696.002 430.01 z"/>
<path transform="translate(0,0)" fill="rgb(200,162,114)" d="M 737.805 347.987 C 763.319 347.851 788.834 347.906 814.347 348.152 C 836.341 347.989 858.337 347.979 880.331 348.121 L 880.448 367.641 C 873.603 367.806 866.757 367.933 859.91 368.022 L 819.348 368.046 L 757.974 368.121 L 737.726 367.993 L 737.805 347.987 z"/>
<path transform="translate(0,0)" fill="rgb(172,129,86)" d="M 737.805 347.987 C 763.319 347.851 788.834 347.906 814.347 348.152 C 798.601 349.712 774.126 348.975 757.95 348.9 L 757.974 368.121 L 737.726 367.993 L 737.805 347.987 z"/>
<path transform="translate(0,0)" fill="rgb(134,165,170)" d="M 716.862 429.944 C 736.939 430.237 758.409 429.526 778.056 430.048 L 777.942 449.968 C 773.253 449.953 761.763 449.562 757.894 450.715 L 757.999 470.961 L 716.256 470.944 C 710.171 470.647 703.777 472.053 698.872 470.1 C 695.908 467.036 696.834 466.985 696.145 461.641 L 696.01 450.84 C 702.38 450.717 708.748 450.539 715.115 450.305 L 716.273 449.561 C 717.257 445.763 716.887 434.497 716.862 429.944 z"/>
<path transform="translate(0,0)" fill="rgb(27,31,60)" d="M 716.575 412.82 L 717.057 411.125 C 720.276 408.752 770.37 409.864 778.049 409.861 C 778.046 416.431 777.901 423.53 778.056 430.048 C 758.409 429.526 736.939 430.237 716.862 429.944 C 716.826 424.236 716.73 418.527 716.575 412.82 z"/>
<path transform="translate(0,0)" fill="rgb(27,31,60)" d="M 819.151 389.131 C 819.094 394.639 819.292 405.01 818.774 410.114 C 806.594 409.272 790.44 409.776 778.049 409.861 L 778.051 389.196 L 819.151 389.131 z"/>
<path transform="translate(0,0)" fill="rgb(103,139,139)" d="M 1043.99 347.979 C 1050.92 347.937 1058.03 347.809 1064.94 347.88 L 1064.84 368.014 L 1065.02 368.839 L 1064.86 389.013 L 1063.89 389.04 C 1059.09 390.468 1049.51 390.037 1044.12 390.028 C 1044.34 396.505 1044.74 403.753 1044.71 410.165 C 1031.77 410.024 1016.45 410.194 1003.78 409.074 C 1003.79 415.394 1004.06 423.777 1003.78 429.925 L 962.188 430.006 L 921.881 429.979 C 921.746 436.916 921.649 443.854 921.591 450.792 L 880.244 450.899 C 867.044 450.883 853.086 450.648 839.953 450.964 L 839.965 491.003 L 838.961 491.134 C 832.375 491.128 826.441 491.462 819.877 491.842 L 819.768 470.956 L 778.931 470.91 L 777.943 471.174 L 757.999 470.961 L 757.894 450.715 C 761.763 449.562 773.253 449.953 777.942 449.968 L 778.056 430.048 C 777.901 423.53 778.046 416.431 778.049 409.861 C 790.44 409.776 806.594 409.272 818.774 410.114 C 819.292 405.01 819.094 394.639 819.151 389.131 C 819.266 382.104 819.332 375.075 819.348 368.046 L 859.91 368.022 C 866.757 367.933 873.603 367.806 880.448 367.641 L 882.474 368.404 C 892.119 367.497 911.487 368.08 921.85 368.12 L 921.765 348.058 L 962.148 347.984 C 989.295 347.987 1016.89 348.259 1043.99 347.979 z"/>
<path transform="translate(0,0)" fill="rgb(61,97,110)" d="M 1043.99 347.979 C 1050.92 347.937 1058.03 347.809 1064.94 347.88 L 1064.84 368.014 L 1065.02 368.839 L 1064.86 389.013 L 1063.89 389.04 C 1059.09 390.468 1049.51 390.037 1044.12 390.028 C 1044.34 396.505 1044.74 403.753 1044.71 410.165 C 1031.77 410.024 1016.45 410.194 1003.78 409.074 C 1003.79 415.394 1004.06 423.777 1003.78 429.925 L 962.188 430.006 C 962.466 423.328 962.273 416.559 962.18 409.87 L 961.86 408.939 C 962.286 403.514 962.105 395.711 962.138 390.085 L 962.602 389.928 C 967.773 388.101 996.256 388.86 1003.51 388.921 C 1003.21 381.802 1002.71 375.144 1003.55 368.06 L 1043.99 368.029 L 1043.99 347.979 z"/>
<path transform="translate(0,0)" fill="rgb(27,31,60)" d="M 1043.99 347.979 C 1050.92 347.937 1058.03 347.809 1064.94 347.88 L 1064.84 368.014 L 1065.02 368.839 L 1064.86 389.013 L 1063.89 389.04 C 1044.69 388.424 1024.13 389.686 1004.12 389.173 C 1004.12 381.746 1004.1 375.457 1003.55 368.06 L 1043.99 368.029 L 1043.99 347.979 z"/>
<path transform="translate(0,0)" fill="rgb(61,97,110)" d="M 1043.99 347.979 C 1050.92 347.937 1058.03 347.809 1064.94 347.88 L 1064.84 368.014 L 1043.99 368.029 L 1043.99 347.979 z"/>
<path transform="translate(0,0)" fill="rgb(27,31,60)" d="M 962.602 389.928 C 976.321 389.745 990.041 389.718 1003.76 389.849 C 1003.77 396.407 1003.69 403.16 1003.83 409.698 L 962.18 409.87 L 961.86 408.939 C 962.286 403.514 962.105 395.711 962.138 390.085 L 962.602 389.928 z"/>
<path transform="translate(0,0)" fill="rgb(134,165,170)" d="M 778.716 450.724 C 796.87 450.639 821.319 449.852 838.993 450.57 L 838.961 491.134 C 832.375 491.128 826.441 491.462 819.877 491.842 L 819.768 470.956 L 778.931 470.91 C 778.819 464.325 778.577 457.271 778.716 450.724 z"/>
<path transform="translate(0,0)" fill="rgb(134,165,170)" d="M 880.448 367.641 L 882.474 368.404 C 888.659 369.831 914.325 369.274 921.87 369.209 L 921.903 389.035 C 912.758 389.174 864.507 390.756 859.912 389.199 L 859.91 368.022 C 866.757 367.933 873.603 367.806 880.448 367.641 z"/>
<path transform="translate(0,0)" fill="rgb(27,31,60)" d="M 901.147 430.018 L 921.881 429.979 C 921.746 436.916 921.649 443.854 921.591 450.792 L 880.244 450.899 L 879.959 449.823 L 880.02 430.056 L 901.147 430.018 z"/>
<path transform="translate(0,0)" fill="rgb(27,31,60)" d="M 819.348 368.046 L 859.91 368.022 L 859.912 389.199 C 847.466 388.7 831.666 388.754 819.151 389.131 C 819.266 382.104 819.332 375.075 819.348 368.046 z"/>
<path transform="translate(0,0)" fill="rgb(134,165,170)" d="M 778.049 409.861 C 790.44 409.776 806.594 409.272 818.774 410.114 L 819.78 410.026 C 819.491 416.977 819.465 423.031 819.559 429.993 C 806.662 430.089 790.698 430.613 778.056 430.048 C 777.901 423.53 778.046 416.431 778.049 409.861 z"/>
<path transform="translate(0,0)" fill="rgb(27,31,60)" d="M 921.693 415.342 L 922.305 410.962 C 925.268 408.709 955.188 409.864 962.18 409.87 C 962.273 416.559 962.466 423.328 962.188 430.006 L 921.881 429.979 C 922.015 425.263 921.791 420.098 921.693 415.342 z"/>
<path transform="translate(0,0)" fill="rgb(134,165,170)" d="M 921.765 348.058 L 962.148 347.984 L 961.994 368.092 L 921.85 368.12 L 921.765 348.058 z"/>
<path transform="translate(0,0)" fill="rgb(134,165,170)" d="M 820.027 390.004 L 860.049 389.9 L 859.71 409.568 L 819.78 410.026 C 820.003 403.354 820.085 396.679 820.027 390.004 z"/>
<path transform="translate(0,0)" fill="rgb(134,165,170)" d="M 901.869 409.913 C 907.145 409.929 916.143 408.132 920.327 410.866 C 921.553 411.667 921.358 413.343 921.693 415.342 C 921.791 420.098 922.015 425.263 921.881 429.979 L 901.147 430.018 C 901.328 423.314 901.569 416.612 901.869 409.913 z"/>
<path transform="translate(0,0)" fill="rgb(61,97,110)" d="M 757.894 450.715 C 764.838 451.288 770.94 451.08 777.893 450.946 L 777.943 471.174 L 757.999 470.961 L 757.894 450.715 z"/>
<path transform="translate(0,0)" fill="rgb(134,165,170)" d="M 860.057 430.916 C 866.557 430.875 873.485 430.397 880.02 430.056 L 879.959 449.823 L 860.047 449.904 L 860.057 430.916 z"/>
<path transform="translate(0,0)" fill="rgb(134,165,170)" d="M 942.756 389.864 C 948.741 389.627 956.497 388.953 962.138 390.085 C 962.105 395.711 962.286 403.514 961.86 408.939 L 942.173 408.869 L 942.756 389.864 z"/>
<path transform="translate(0,0)" fill="rgb(233,227,198)" d="M 1228.88 1556.29 C 1251.84 1556.17 1274.8 1556.19 1297.76 1556.36 C 1294.85 1557.99 1274.94 1557.32 1269.94 1557.31 L 1270.05 1598.05 L 1321.99 1598.16 C 1329.17 1598.15 1345.26 1598.41 1351.78 1597.2 C 1351.62 1610.98 1351.53 1624.77 1351.51 1638.56 C 1324.15 1638.67 1296.79 1638.49 1269.44 1637.99 L 1269.46 1678.93 L 1146.98 1678.98 L 1146.95 1597.19 C 1173.71 1596.52 1202.1 1596.95 1228.98 1596.95 L 1228.88 1556.29 z"/>
<path transform="translate(0,0)" fill="rgb(200,162,114)" d="M 962.188 430.006 L 1003.78 429.925 L 1147.05 429.929 L 1147.06 450.062 C 1135.03 450.313 1117.71 451.128 1105.91 450.621 L 1106.09 471.009 L 1085.83 471.126 L 1085.27 470.881 L 1064.22 470.981 L 1044.04 470.976 L 1044.03 491.118 C 1039.84 491.202 1027.07 491.208 1023.61 491.8 L 1003.32 491.788 C 969.376 491.422 935.428 491.404 901.484 491.734 C 893.843 491.513 867.385 490.446 861.099 491.752 L 859.994 492.067 L 860.021 471.059 L 879.922 471.205 C 879.93 466.713 880.018 462.222 880.183 457.733 L 880.244 450.899 L 921.591 450.792 C 921.649 443.854 921.746 436.916 921.881 429.979 L 962.188 430.006 z"/>
<path transform="translate(0,0)" fill="rgb(132,89,63)" d="M 880.183 457.733 L 880.933 471.043 L 1044.04 470.976 L 1044.03 491.118 C 1039.84 491.202 1027.07 491.208 1023.61 491.8 L 1003.32 491.788 C 969.376 491.422 935.428 491.404 901.484 491.734 C 893.843 491.513 867.385 490.446 861.099 491.752 L 859.994 492.067 L 860.021 471.059 L 879.922 471.205 C 879.93 466.713 880.018 462.222 880.183 457.733 z"/>
<path transform="translate(0,0)" fill="rgb(172,129,86)" d="M 1085.84 450.426 C 1092.54 450.346 1099.23 450.41 1105.91 450.621 L 1106.09 471.009 L 1085.83 471.126 L 1085.27 470.881 C 1085.88 468.021 1085.81 454.187 1085.84 450.426 z"/>
<path transform="translate(0,0)" fill="rgb(103,139,139)" d="M 941.929 1024.06 L 1105.74 1024.03 L 1106.02 1064.96 L 1024.01 1064.99 L 942.168 1064.99 L 941.929 1024.06 z"/>
<path transform="translate(0,0)" fill="rgb(103,139,139)" d="M 860.093 1065 L 901.009 1064.97 C 901.056 1078.4 900.854 1092.63 901.169 1105.99 L 941.901 1105.96 L 941.816 1146.99 L 901.022 1146.99 L 860.391 1147.01 C 860.154 1119.67 860.055 1092.34 860.093 1065 z"/>
<path transform="translate(0,0)" fill="rgb(233,227,198)" d="M 901.169 1105.99 L 941.901 1105.96 L 941.816 1146.99 L 901.022 1146.99 L 901.169 1105.99 z"/>
<path transform="translate(0,0)" fill="rgb(172,129,86)" d="M 594.112 921.82 L 614.105 921.897 L 634.584 921.902 C 634.484 934.325 634.808 949.961 634.226 962.134 L 655.953 961.957 C 662.494 961.941 669.278 962.024 675.793 961.898 C 681.259 961.905 691.25 961.638 696.235 962.474 C 690.861 963.349 667.434 963.044 661.218 963.06 C 632.009 963.239 602.799 963 573.597 962.342 C 573.629 955.692 573.841 948.669 573.211 942.098 L 573.796 941.867 L 574.036 921.826 L 594.112 921.82 z"/>
<path transform="translate(0,0)" fill="rgb(200,162,114)" d="M 614.105 921.897 L 634.584 921.902 C 634.484 934.325 634.808 949.961 634.226 962.134 C 627.539 962.298 620.588 962.108 613.872 962.016 L 614.105 921.897 z"/>
<path transform="translate(0,0)" fill="rgb(132,89,63)" d="M 573.796 941.867 L 594.087 941.946 L 594.071 961.9 L 613.872 962.016 C 620.588 962.108 627.539 962.298 634.226 962.134 L 655.953 961.957 C 662.494 961.941 669.278 962.024 675.793 961.898 C 681.259 961.905 691.25 961.638 696.235 962.474 C 690.861 963.349 667.434 963.044 661.218 963.06 C 632.009 963.239 602.799 963 573.597 962.342 C 573.629 955.692 573.841 948.669 573.211 942.098 L 573.796 941.867 z"/>
<path transform="translate(0,0)" fill="rgb(200,162,114)" d="M 574.036 921.826 L 594.112 921.82 L 594.087 941.946 L 573.796 941.867 L 574.036 921.826 z"/>
<path transform="translate(0,0)" fill="rgb(132,89,63)" d="M 1310.23 675.845 C 1317.37 675.968 1324.5 676.039 1331.63 676.058 L 1351.84 676.153 L 1351.82 696.044 L 1331.39 696.105 L 1310.32 696.328 C 1310.38 689.5 1310.36 682.672 1310.23 675.845 z"/>
<path transform="translate(0,0)" fill="rgb(172,129,86)" d="M 1331.63 676.058 L 1351.84 676.153 L 1351.82 696.044 L 1331.39 696.105 L 1331.63 676.058 z"/>
<path transform="translate(0,0)" fill="rgb(254,254,254)" d="M 1171.57 1003.49 L 1187.93 1003.39 L 1188.01 1023.93 L 1165.5 1024.04 L 1146.97 1024.03 L 1147.03 1003.79 L 1171.57 1003.49 z"/>
<path transform="translate(0,0)" fill="rgb(132,89,63)" d="M 1249.86 758.062 L 1269.91 758.034 L 1269.74 777.867 L 1249.92 777.891 L 1249.86 758.062 z"/>
</svg>