<svg version="1.1" xmlns="http://www.w3.org/2000/svg" style="display: block;" viewBox="0 0 2048 2048" width="1024" height="1024" preserveAspectRatio="none">
<path transform="translate(0,0)" fill="rgb(216,167,38)" d="M 901.917 409.94 L 1556.21 409.893 L 1556.12 462.369 C 1556.1 469.218 1555.75 484.624 1556.55 491.091 C 1576.33 492.167 1618.9 492.497 1638.33 491.018 L 1637.85 1146.29 C 1615.87 1146.25 1577.24 1145.11 1556.58 1146.82 C 1556.22 1170.76 1555.36 1205.45 1556.57 1228.79 C 1526.76 1227.73 1494.47 1228.29 1464.41 1228.25 C 1442.98 1228.22 1413.6 1227.37 1392.99 1229.12 C 1392.92 1201.55 1392.99 1173.97 1393.22 1146.39 C 1368.49 1145.9 1335.51 1145.84 1310.97 1147.11 L 1310.97 1105.75 C 1290.79 1105.68 1246.99 1104.35 1228.87 1105.92 C 1228.37 1133.28 1228.22 1160.65 1228.4 1188.02 C 1208.09 1187.85 1165.28 1186.37 1146.92 1187.97 C 1146.76 1214.54 1147.14 1243.43 1146.33 1269.78 C 1120.5 1269.82 1090.23 1270.59 1064.84 1269.62 C 1062.97 1323.27 1065.04 1379.3 1064.21 1433.26 C 1037.19 1433.16 1009.33 1432.75 982.405 1433.48 C 982.887 1439.11 982.727 1444.75 982.661 1450.39 C 982.412 1471.88 982.663 1493.37 982.85 1514.85 C 947.566 1514.53 912.28 1514.55 876.997 1514.93 C 857.801 1514.97 838.129 1514.42 819 1515.09 C 794.86 1515.21 760.383 1516.52 737.289 1515.43 C 730.084 1514.75 715.958 1515.23 708.353 1515.25 L 655.039 1515.26 C 655.066 1542.3 655.424 1570.16 654.975 1597.14 L 573.173 1597.08 C 549.569 1596 514.896 1596.12 491.453 1596.96 C 493.051 1575.9 491.632 1537.07 491.496 1515.1 C 470.441 1513.46 431.872 1514.01 410.267 1514.79 C 409.494 1460.68 410.043 1405.7 409.935 1351.46 C 436.964 1351.83 463.995 1351.96 491.026 1351.87 L 491.209 1351.2 C 492.62 1326.69 491.215 1294.74 491.026 1269.34 C 517.341 1270.39 546.804 1269.36 573.675 1269.81 C 572.785 1258.55 573.267 1240.42 573.242 1228.81 C 600.349 1229.07 628.039 1228.38 655.522 1228.61 C 655.782 1201.43 655.812 1174.26 655.614 1147.08 C 682.929 1147.26 710.245 1147.22 737.559 1146.96 C 738.86 1124.31 737.781 1088.71 737.566 1065.12 C 762.053 1065.8 794.823 1065.59 819.14 1065.14 C 819.684 1037.79 819.828 1010.43 819.57 983.075 C 845.361 983.998 875.008 983.127 901.176 983.019 C 900.816 956.543 901.753 928.049 901.659 901.119 C 926.311 902.472 957.843 901.478 982.965 901.128 L 983.69 819.206 L 1065.03 819.089 C 1065.66 791.938 1064.89 764.385 1065.76 737.158 C 1022.07 736.612 978.112 737.536 934.401 737.318 C 923.623 737.265 912.302 737.204 901.552 737.761 C 900.372 711.786 902.004 682.525 901.111 655.113 C 876.809 654.53 843.221 654.724 819.075 655.513 C 818.89 623.739 819.655 592.149 819.354 560.321 C 819.141 537.753 821.018 513.825 819.028 491.257 C 834.811 491.518 851.078 491.278 866.915 491.376 C 877.015 491.438 891.9 492.035 901.405 491.267 C 902.324 464.057 901.398 437.04 901.917 409.94 z"/>
<path transform="translate(0,0)" fill="rgb(245,231,191)" d="M 901.917 409.94 L 1556.21 409.893 L 1556.12 462.369 C 1556.1 469.218 1555.75 484.624 1556.55 491.091 C 1576.33 492.167 1618.9 492.497 1638.33 491.018 L 1637.85 1146.29 C 1615.87 1146.25 1577.24 1145.11 1556.58 1146.82 C 1556.22 1170.76 1555.36 1205.45 1556.57 1228.79 C 1526.76 1227.73 1494.47 1228.29 1464.41 1228.25 C 1442.98 1228.22 1413.6 1227.37 1392.99 1229.12 C 1392.92 1201.55 1392.99 1173.97 1393.22 1146.39 C 1368.49 1145.9 1335.51 1145.84 1310.97 1147.11 L 1310.97 1105.75 C 1290.79 1105.68 1246.99 1104.35 1228.87 1105.92 C 1228.4 1078.92 1228.73 1051.07 1228.73 1024 L 1310.75 1024.03 L 1310.67 901.138 C 1338.1 901.012 1365.52 901.063 1392.95 901.289 L 1392.88 982.952 C 1420.12 983.151 1447.35 983.174 1474.59 983.02 L 1474.64 737.989 C 1467.96 737.919 1461.29 737.632 1454.63 737.129 C 1437.61 738.241 1410.86 737.548 1393.03 737.889 L 1392.81 655.211 L 1310.88 655.161 C 1310.98 627.894 1310.93 600.627 1310.71 573.36 C 1256.51 572.7 1201.59 573.367 1147.27 573.174 L 1065.05 573.423 C 1064.91 600.652 1064.94 627.881 1065.14 655.11 L 982.88 655.115 L 901.111 655.113 C 876.809 654.53 843.221 654.724 819.075 655.513 C 818.89 623.739 819.655 592.149 819.354 560.321 C 819.141 537.753 821.018 513.825 819.028 491.257 C 834.811 491.518 851.078 491.278 866.915 491.376 C 877.015 491.438 891.9 492.035 901.405 491.267 C 902.324 464.057 901.398 437.04 901.917 409.94 z"/>
<path transform="translate(0,0)" fill="rgb(15,21,49)" d="M 1556.55 491.091 C 1576.33 492.167 1618.9 492.497 1638.33 491.018 L 1637.85 1146.29 C 1615.87 1146.25 1577.24 1145.11 1556.58 1146.82 C 1556.22 1170.76 1555.36 1205.45 1556.57 1228.79 C 1526.76 1227.73 1494.47 1228.29 1464.41 1228.25 C 1442.98 1228.22 1413.6 1227.37 1392.99 1229.12 C 1392.92 1201.55 1392.99 1173.97 1393.22 1146.39 C 1368.49 1145.9 1335.51 1145.84 1310.97 1147.11 L 1310.97 1105.75 C 1290.79 1105.68 1246.99 1104.35 1228.87 1105.92 C 1228.4 1078.92 1228.73 1051.07 1228.73 1024 L 1310.75 1024.03 L 1310.67 901.138 C 1338.1 901.012 1365.52 901.063 1392.95 901.289 L 1392.88 982.952 L 1392.9 1065.04 C 1420 1065.02 1447.92 1064.66 1474.96 1065.08 C 1502.01 1064.85 1529.07 1064.86 1556.12 1065.09 L 1556.25 673.717 L 1556.32 564.21 C 1556.32 545.183 1555.61 521.113 1556.69 502.495 C 1556.82 498.819 1556.64 494.793 1556.55 491.091 z"/>
<path transform="translate(0,0)" fill="rgb(216,167,38)" d="M 1556.12 1065.09 L 1556.25 673.717 L 1556.32 564.21 C 1556.32 545.183 1555.61 521.113 1556.69 502.495 L 1556.56 1146.77 L 1474.89 1146.9 L 1474.96 1065.08 C 1502.01 1064.85 1529.07 1064.86 1556.12 1065.09 z"/>
<path transform="translate(0,0)" fill="rgb(15,21,49)" d="M 901.917 409.94 L 1556.21 409.893 L 1556.12 462.369 C 1556.1 469.218 1555.75 484.624 1556.55 491.091 C 1484.81 492.702 1406.91 491.265 1334.7 491.258 L 901.405 491.267 C 902.324 464.057 901.398 437.04 901.917 409.94 z"/>
<path transform="translate(0,0)" fill="rgb(250,247,237)" d="M 1145.64 492.354 L 1474.68 492.28 C 1474.18 571.752 1473.63 657.567 1474.76 736.805 C 1468.53 736.725 1460.66 736.388 1454.63 737.129 C 1437.61 738.241 1410.86 737.548 1393.03 737.889 L 1392.81 655.211 L 1310.88 655.161 C 1310.98 627.894 1310.93 600.627 1310.71 573.36 C 1256.51 572.7 1201.59 573.367 1147.27 573.174 C 1147.01 546.816 1147.53 518.34 1145.64 492.354 z"/>
<path transform="translate(0,0)" fill="rgb(15,21,49)" d="M 901.405 491.267 C 900.366 516.773 900.961 547.508 901.071 573.371 L 901.111 655.113 C 876.809 654.53 843.221 654.724 819.075 655.513 C 818.89 623.739 819.655 592.149 819.354 560.321 C 819.141 537.753 821.018 513.825 819.028 491.257 C 834.811 491.518 851.078 491.278 866.915 491.376 C 877.015 491.438 891.9 492.035 901.405 491.267 z"/>
<path transform="translate(0,0)" fill="rgb(216,167,38)" d="M 901.071 573.371 C 928.322 573.053 955.575 573.058 982.826 573.387 C 983.021 600.629 983.04 627.872 982.88 655.115 L 901.111 655.113 L 901.071 573.371 z"/>
<path transform="translate(0,0)" fill="rgb(245,231,191)" d="M 573.239 1310.9 L 655.102 1310.88 L 655.039 1515.26 C 655.066 1542.3 655.424 1570.16 654.975 1597.14 L 573.173 1597.08 C 549.569 1596 514.896 1596.12 491.453 1596.96 C 493.051 1575.9 491.632 1537.07 491.496 1515.1 C 470.441 1513.46 431.872 1514.01 410.267 1514.79 C 409.494 1460.68 410.043 1405.7 409.935 1351.46 C 436.964 1351.83 463.995 1351.96 491.026 1351.87 L 491.209 1351.2 C 518.168 1351.81 546.253 1351.4 573.308 1351.35 L 573.239 1310.9 z"/>
<path transform="translate(0,0)" fill="rgb(15,21,49)" d="M 409.935 1351.46 C 436.964 1351.83 463.995 1351.96 491.026 1351.87 C 492.583 1377.78 490.841 1407.26 491.54 1433.79 C 491.671 1460.9 491.612 1488.01 491.364 1515.12 C 518.474 1515.33 546.084 1514.98 573.092 1515.45 C 573.284 1542.18 572.704 1570.65 573.173 1597.08 C 549.569 1596 514.896 1596.12 491.453 1596.96 C 493.051 1575.9 491.632 1537.07 491.496 1515.1 C 470.441 1513.46 431.872 1514.01 410.267 1514.79 C 409.494 1460.68 410.043 1405.7 409.935 1351.46 z"/>
<path transform="translate(0,0)" fill="rgb(216,167,38)" d="M 491.54 1433.79 C 519.022 1433.02 545.829 1433.35 573.292 1433.33 L 573.102 1515.72 C 597.638 1515.61 631.135 1514.34 655.039 1515.26 C 655.066 1542.3 655.424 1570.16 654.975 1597.14 L 573.173 1597.08 C 572.704 1570.65 573.284 1542.18 573.092 1515.45 C 546.084 1514.98 518.474 1515.33 491.364 1515.12 C 491.612 1488.01 491.671 1460.9 491.54 1433.79 z"/>
<path transform="translate(0,0)" fill="rgb(15,21,49)" d="M 983.128 1269.73 L 1064.84 1269.62 C 1062.97 1323.27 1065.04 1379.3 1064.21 1433.26 C 1037.19 1433.16 1009.33 1432.75 982.405 1433.48 C 982.887 1439.11 982.727 1444.75 982.661 1450.39 C 982.412 1471.88 982.663 1493.37 982.85 1514.85 C 947.566 1514.53 912.28 1514.55 876.997 1514.93 C 857.801 1514.97 838.129 1514.42 819 1515.09 C 819.755 1488.78 819.252 1459.87 819.301 1433.34 L 901.296 1433.32 L 901.252 1351.23 C 928.542 1351.23 955.832 1351.38 983.121 1351.7 L 983.128 1269.73 z"/>
<path transform="translate(0,0)" fill="rgb(15,21,49)" d="M 901.111 655.113 L 982.88 655.115 L 1065.14 655.11 C 1092.24 655.11 1119.99 654.794 1147.03 655.167 L 1147.11 819.155 C 1119.75 819.34 1092.39 819.318 1065.03 819.089 C 1065.66 791.938 1064.89 764.385 1065.76 737.158 C 1022.07 736.612 978.112 737.536 934.401 737.318 C 923.623 737.265 912.302 737.204 901.552 737.761 C 900.372 711.786 902.004 682.525 901.111 655.113 z"/>
<path transform="translate(0,0)" fill="rgb(15,21,49)" d="M 655.614 1147.08 C 682.929 1147.26 710.245 1147.22 737.559 1146.96 C 736.455 1173.81 738.029 1201.99 737.185 1228.98 C 737.012 1256.25 737.024 1283.52 737.219 1310.79 L 655.102 1310.88 L 573.239 1310.9 L 573.308 1351.35 C 546.253 1351.4 518.168 1351.81 491.209 1351.2 C 492.62 1326.69 491.215 1294.74 491.026 1269.34 C 517.341 1270.39 546.804 1269.36 573.675 1269.81 C 572.785 1258.55 573.267 1240.42 573.242 1228.81 C 600.349 1229.07 628.039 1228.38 655.522 1228.61 C 655.782 1201.43 655.812 1174.26 655.614 1147.08 z"/>
<path transform="translate(0,0)" fill="rgb(245,231,191)" d="M 655.088 1228.87 L 737.185 1228.98 C 737.012 1256.25 737.024 1283.52 737.219 1310.79 L 655.102 1310.88 C 654.378 1284.73 655.072 1255.28 655.088 1228.87 z"/>
<path transform="translate(0,0)" fill="rgb(15,21,49)" d="M 983.69 819.206 L 1065.03 819.089 L 1064.96 901.087 L 982.965 901.128 L 983.69 819.206 z"/>
<path transform="translate(0,0)" fill="rgb(15,21,49)" d="M 1064.94 1187.91 L 1146.92 1187.97 C 1146.76 1214.54 1147.14 1243.43 1146.33 1269.78 C 1120.5 1269.82 1090.23 1270.59 1064.84 1269.62 C 1065.39 1242.99 1064.92 1214.67 1064.94 1187.91 z"/>
<path transform="translate(0,0)" fill="rgb(15,21,49)" d="M 1146.97 1105.92 L 1228.87 1105.92 C 1228.37 1133.28 1228.22 1160.65 1228.4 1188.02 C 1208.09 1187.85 1165.28 1186.37 1146.92 1187.97 C 1147.23 1160.81 1146.96 1133.12 1146.97 1105.92 z"/>
<path transform="translate(0,0)" fill="rgb(15,21,49)" d="M 819.14 1065.14 L 819.105 1146.96 L 737.559 1146.96 C 738.86 1124.31 737.781 1088.71 737.566 1065.12 C 762.053 1065.8 794.823 1065.59 819.14 1065.14 z"/>
<path transform="translate(0,0)" fill="rgb(15,21,49)" d="M 819.57 983.075 C 845.361 983.998 875.008 983.127 901.176 983.019 L 901.106 1064.87 C 875.712 1064.87 844.018 1063.99 819.14 1065.14 C 819.684 1037.79 819.828 1010.43 819.57 983.075 z"/>
<path transform="translate(0,0)" fill="rgb(15,21,49)" d="M 901.659 901.119 C 926.311 902.472 957.843 901.478 982.965 901.128 L 983.031 983.073 C 956.02 983.128 928.112 983.515 901.176 983.019 C 900.816 956.543 901.753 928.049 901.659 901.119 z"/>
<path transform="translate(0,0)" fill="rgb(15,21,49)" d="M 737.289 1515.43 C 760.383 1516.52 794.86 1515.21 819 1515.09 C 818.795 1542.42 818.772 1569.75 818.93 1597.07 L 737.808 1597.07 C 735.959 1623.13 738.063 1652.23 737.136 1678.69 C 705.608 1677.6 671.968 1678.65 640.226 1678.55 C 617.959 1678.48 596.054 1678.33 573.776 1679 C 573.782 1656.87 574.874 1617.73 573.173 1597.08 L 654.975 1597.14 C 655.424 1570.16 655.066 1542.3 655.039 1515.26 L 708.353 1515.25 C 715.958 1515.23 730.084 1514.75 737.289 1515.43 z"/>
<path transform="translate(0,0)" fill="rgb(245,231,191)" d="M 655.039 1515.26 L 708.353 1515.25 C 715.958 1515.23 730.084 1514.75 737.289 1515.43 C 737.129 1542.65 737.15 1569.87 737.351 1597.09 L 654.975 1597.14 C 655.424 1570.16 655.066 1542.3 655.039 1515.26 z"/>
</svg>